<?xml version="1.0" encoding="UTF-8" standalone="no"?>
<!-- Created with Inkscape (http://www.inkscape.org/) -->

<svg
   width="283.67657mm"
   height="176.72192mm"
   viewBox="0 0 283.67657 176.72192"
   version="1.1"
   id="svg1"
   xml:space="preserve"
   sodipodi:docname="Pro Kop Team logo bijeli.svg"
   inkscape:version="1.3.2 (091e20e, 2023-11-25, custom)"
   inkscape:export-filename="Pro Kop Team logo.png"
   inkscape:export-xdpi="1000"
   inkscape:export-ydpi="1000"
   xmlns:inkscape="http://www.inkscape.org/namespaces/inkscape"
   xmlns:sodipodi="http://sodipodi.sourceforge.net/DTD/sodipodi-0.dtd"
   xmlns="http://www.w3.org/2000/svg"
   xmlns:svg="http://www.w3.org/2000/svg"><sodipodi:namedview
     id="namedview1"
     pagecolor="#000000"
     bordercolor="#000000"
     borderopacity="0.25"
     inkscape:showpageshadow="2"
     inkscape:pageopacity="0.0"
     inkscape:pagecheckerboard="0"
     inkscape:deskcolor="#d1d1d1"
     inkscape:document-units="mm"
     inkscape:zoom="0.70710678"
     inkscape:cx="279.30718"
     inkscape:cy="212.83914"
     inkscape:window-width="1920"
     inkscape:window-height="991"
     inkscape:window-x="-9"
     inkscape:window-y="-9"
     inkscape:window-maximized="1"
     inkscape:current-layer="layer1" /><defs
     id="defs1" /><g
     inkscape:label="Layer 1"
     inkscape:groupmode="layer"
     id="layer1"
     transform="translate(8.7474396,-44.758645)"><g
       transform="matrix(0.02149645,0,0,-0.02149645,52.143485,238.88326)"
       fill="#000000"
       stroke="none"
       id="Korpa2"
       style="fill:#e6e6e6"><path
         id="path89"
         style="font-variation-settings:'opsz' 36, 'wght' 700;fill:#e6e6e6;fill-opacity:1;stroke:none;stroke-width:0.144591;stroke-dasharray:none"
         transform="matrix(46.51931,0,0,-46.51931,-2210.2848,11057.297)"
         d="m 165.14535,50.503812 c -0.36691,-0.113988 -0.87661,-0.530477 -1.20556,-0.985076 -0.0964,-0.13306 -0.47278,-0.772951 -0.55498,-0.943236 -0.12181,-0.252343 -0.17402,-0.422935 -0.13594,-0.443252 0.0677,-0.03603 0.32545,0.239135 0.70163,0.749061 0.34043,0.461452 0.56878,0.719212 0.81799,0.923364 0.1587,0.129978 0.25409,0.179965 0.36553,0.191506 0.15212,0.01576 0.25179,0.06891 0.31424,0.167678 0.0497,0.0786 0.0625,0.149863 0.0404,0.228277 -0.0368,0.132293 -0.15425,0.170457 -0.34345,0.111678 z M 138.78687,107.962 c -0.56459,-0.34425 -1.38932,-1.62935 -2.45081,-3.81903 -1.1072,-2.28393 -1.72671,-3.9223 -1.78142,-4.71131 l -0.0216,-0.308938 0.34681,-0.04609 c 0.37494,-0.04983 0.87874,-0.187881 1.3498,-0.369872 0.57313,-0.221421 2.08133,-1.103918 2.23168,-1.305817 l 0.0569,-0.07653 0.0501,0.0827 c 0.15274,0.252249 0.2265,0.79111 0.16617,1.213587 -0.0537,0.375886 -0.14235,0.639125 -0.37287,1.107029 -0.31843,0.646411 -0.43466,1.338631 -0.39555,2.355661 0.0365,0.94873 0.1911,1.77273 0.47589,2.53587 0.47456,1.27174 0.72205,2.05135 0.81098,2.555 0.0565,0.319 0.033,0.67349 -0.0517,0.78538 -0.0854,0.11284 -0.2321,0.11367 -0.41466,0.002 z m -3.56476,-8.632664 c 0.16387,0.006 0.32631,-0.01728 0.48815,-0.03947 0.1147,-0.01884 0.23003,-0.03408 0.34211,-0.06597 0.0579,-0.01648 0.10992,-0.03617 0.16612,-0.05647 0.14017,-0.05345 0.27564,-0.118899 0.40995,-0.185547 0.0266,-0.01469 0.0531,-0.02955 0.0798,-0.04407 0.0376,-0.02048 0.0946,-0.04929 0.12877,-0.07048 0.0972,-0.06031 0.18721,-0.128733 0.27681,-0.199536 0.15597,-0.118226 0.30032,-0.251052 0.45653,-0.368813 0.18364,-0.124661 0.33992,-0.282202 0.4902,-0.444116 0.48093,-0.518369 -0.25216,-1.198505 -0.73309,-0.680133 v 0 c -0.11165,0.120401 -0.22514,0.239392 -0.36395,0.32943 -0.16088,0.123852 -0.31345,0.257905 -0.4739,0.382373 -0.0873,0.07107 -0.0121,0.01143 -0.11244,0.0859 -0.01,0.0071 -0.0181,0.01566 -0.0281,0.02204 -0.0537,0.03396 -0.11291,0.05845 -0.16663,0.0924 -0.10005,0.05017 -0.20131,0.09886 -0.30516,0.140589 -0.0353,0.01291 -0.0725,0.03002 -0.10948,0.03852 -0.0637,0.01466 -0.1292,0.02058 -0.19335,0.03317 -0.11693,0.01603 -0.23382,0.03626 -0.35231,0.0302 -0.7071,0 -0.7071,1 0,1 z m 2.57625,88.319554 c -0.38693,0.98884 -0.90285,2.36461 -1.1823,3.07399 -0.27945,0.70939 -1.28979,3.56842 -2.25713,6.34146 -1.87019,5.4171 -1.91318,5.71805 -0.94584,6.87886 0.64489,0.75238 1.39727,0.94585 3.22447,0.75238 1.99917,-0.21497 2.47209,-0.68789 3.99834,-3.97685 1.82719,-3.91235 5.33111,-10.74822 5.89002,-11.5006 0.32245,-0.42993 1.50475,-3.0095 1.37578,-3.0095 -4.8797,0 -7.82471,-0.0645 -8.5341,-0.17197 l -0.90285,-0.15048 z m -13.45677,-1.44026 c -0.043,0.10748 -0.66639,1.76271 -1.39727,3.6544 -0.70939,1.89168 -1.71972,4.64323 -2.23563,6.12648 -0.51592,1.48326 -1.26829,3.50393 -1.69822,4.49276 -0.75238,1.76271 -0.75238,1.8272 -0.40844,2.53658 0.6234,1.35428 1.2253,1.61224 3.33195,1.52625 1.71972,-0.0645 1.91319,-0.10748 2.53659,-0.70938 0.38693,-0.36544 1.8057,-2.85903 3.41793,-6.01901 1.52625,-2.94501 3.26746,-6.25546 3.86936,-7.30879 1.16081,-2.02067 2.23563,-4.19181 2.12815,-4.29929 -0.19347,-0.19347 -9.47993,-0.19347 -9.54442,0 z m -14.25215,0.68789 c -0.27945,0.68788 -1.16081,3.031 -1.95618,5.22363 -0.79537,2.19264 -1.91318,5.09466 -2.45059,6.44894 -0.55891,1.35428 -1.05333,2.88052 -1.13931,3.37494 -0.10749,0.83836 -0.0645,0.96734 0.64489,1.67672 0.73088,0.73088 0.79537,0.75238 2.38611,0.75238 2.75154,0 3.05249,-0.27945 5.37411,-4.94418 1.7842,-3.56841 3.6114,-6.94336 4.92269,-9.093 0.81686,-1.35428 1.69821,-3.11699 1.93468,-3.91236 0.12897,-0.40843 0.0215,-0.42992 -3.13849,-0.47292 -1.7842,-0.0215 -3.91235,-0.10748 -4.68622,-0.17197 l -1.41877,-0.12898 z m -13.241813,-0.15048 c -0.773872,1.56924 -2.730049,6.23397 -4.60024,10.94169 -1.655226,4.19181 -1.719716,4.40678 -1.440262,5.07317 0.472922,1.11781 1.074823,1.39727 2.988007,1.39727 1.053326,0 1.913184,-0.10749 2.278623,-0.32245 0.644894,-0.32245 1.569241,-1.63373 2.429099,-3.43943 0.66639,-1.41877 5.008676,-9.63041 5.739556,-10.85571 0.64489,-1.07482 1.63373,-3.41794 1.50475,-3.52542 -0.043,-0.043 -1.95618,-0.12898 -4.2563,-0.17197 l -4.148814,-0.0645 z m -13.972692,-0.90285 c -0.06449,0.32245 -0.752376,1.97767 -1.504751,3.69739 -0.752376,1.71972 -1.741213,4.08433 -2.214135,5.26663 -0.472921,1.1823 -1.203801,2.96651 -1.63373,3.93385 -0.924347,2.12815 -0.96734,3.0095 -0.257957,3.84786 0.451425,0.53742 0.687886,0.60191 2.407602,0.73088 2.859028,0.23647 3.224468,-0.043 5.675063,-4.42826 0.859858,-1.54775 1.913184,-3.41794 2.364609,-4.19181 0.451426,-0.77387 1.225298,-2.21414 1.719716,-3.22447 0.494419,-1.01033 1.182305,-2.21413 1.504752,-2.68706 0.472922,-0.68788 1.504751,-2.77304 1.504751,-3.0095 0,-0.10748 -2.923517,-0.30095 -6.276963,-0.40843 l -3.138482,-0.10748 z m 23.409635,-15.28397 c -0.6019,0.42992 -3.33195,3.76187 -3.20297,3.89085 0.086,0.086 9.11449,0.17197 20.05619,0.17197 10.96318,0.0215 22.54977,0.10749 25.73125,0.19347 l 5.80404,0.12898 0.96734,-1.93468 c 0.51591,-1.07482 0.88135,-1.99917 0.81686,-2.08516 -0.086,-0.0645 -11.00618,-0.15047 -24.29099,-0.19346 -13.2848,-0.0215 -24.48445,-0.10749 -24.89288,-0.19347 -0.40844,-0.086 -0.85986,-0.0645 -0.98884,0.0215 z m 3.74038,-5.15915 -0.96734,2.10665 0.53741,0.15047 c 0.30095,0.086 11.17816,0.17198 24.18351,0.17198 l 23.64609,0.043 0.73088,-1.87019 c 0.40843,-1.03183 0.68789,-1.93468 0.6019,-1.99917 -0.086,-0.086 -9.99585,-0.17197 -22.03386,-0.19347 -14.03718,-0.0215 -22.48528,-0.12898 -23.53861,-0.25796 -0.90285,-0.12898 -1.76271,-0.23646 -1.91318,-0.23646 -0.15048,0 -0.70939,0.94585 -1.2468,2.08516 z m 106.83736,-13.11284 c 0.25795,0.47292 0.79536,1.16081 1.22529,1.52625 0.73088,0.64489 0.85986,0.68789 2.55808,0.68789 h 1.8057 l 0.6019,-1.18231 c 0.45143,-0.83836 0.55891,-1.2253 0.38694,-1.39727 -0.12898,-0.12898 -1.65523,-0.27945 -3.6114,-0.36544 l -3.39644,-0.12898 z m -24.248,-0.88135 c 0,0.32245 1.35428,1.7842 2.17114,2.36461 l 0.90285,0.6234 4.21331,0.0645 c 2.32161,0.0215 7.02934,0.0645 10.46877,0.10749 l 6.25546,0.043 -1.03183,-1.13931 c -0.5804,-0.6449 -1.05332,-1.33278 -1.05332,-1.52625 0,-0.34394 -0.47292,-0.38694 -5.95452,-0.51592 -7.48076,-0.19346 -15.97186,-0.19346 -15.97186,-0.0215 z m 21.62543,-5.24514 c 0.21496,0.73088 0.73088,1.74122 1.11781,2.14965 0.27946,0.34394 0.81687,0.38694 4.98718,0.38694 h 4.66473 l 0.47292,-1.20381 c 0.34394,-0.92434 0.40843,-1.28978 0.21497,-1.50475 -0.19347,-0.23646 -1.37578,-0.30095 -5.93302,-0.30095 h -5.67507 z m -23.6461,0.10749 c 0.19347,0.83836 0.6449,1.65522 1.07483,2.02066 0.30095,0.23646 2.19263,0.32245 10.74822,0.40844 l 10.36129,0.10748 -0.32245,-0.6234 c -0.17197,-0.34394 -0.45142,-1.03183 -0.5804,-1.50475 l -0.25796,-0.88135 -10.57625,-0.0645 -10.57625,-0.043 z m 23.43113,-6.25547 c -0.25795,0.66639 -0.15047,2.62257 0.17198,2.73005 0.15047,0.0645 -5.34433,18.66713 6.12648,0 10.7659,18.45861 4.76238,5.96271 5.93302,-0.5804 0.32245,-1.59074 0.32245,-2.06366 0.0645,-2.14965 -0.15047,-0.0645 -2.94501,-0.15047 -6.21247,-0.21496 -5.30962,-0.10749 -5.95452,-0.086 -6.0835,0.21496 z m -23.60239,0.5367 c -0.12897,0.27946 -0.27945,0.92435 -0.36544,1.44026 -0.10748,0.90286 -0.10748,0.92435 0.6019,1.05333 0.40844,0.0645 5.07317,0.086 10.40429,0.0645 l 9.6734,-0.0645 0.17197,-1.37577 c 0.086,-0.75238 0.10748,-1.41877 0.043,-1.50475 -0.086,-0.0645 -4.68622,-0.12898 -10.21081,-0.12898 h -10.08184 z m 26.43993,-5.86782 c -0.38694,0.36544 -0.94585,1.05333 -1.2253,1.54775 l -0.51592,0.92434 3.28896,-0.12898 c 1.8057,-0.086 4.36378,-0.15047 5.67506,-0.15047 h 2.4076 l 0.21497,-1.2468 c 0.12898,-0.66639 0.23646,-1.24679 0.21496,-1.24679 0,-0.0215 -2.10665,-0.086 -4.68622,-0.17197 l -4.64324,-0.15048 z m -23.0657,0.21497 c -0.47292,0.47292 -1.03182,1.13931 -1.24679,1.50475 l -0.38694,0.68788 h 10.21082 c 7.13682,0 10.23231,-0.0645 10.23231,-0.23646 0,-0.30095 1.24679,-2.14964 1.67672,-2.51508 0.27946,-0.21497 -1.63373,-0.25796 -9.6519,-0.25796 h -9.99585 z m -98.862167,-4.10583 c 0.343944,7.09383 0.236461,17.79906 -0.193468,21.2385 -0.580404,4.44976 -2.128148,11.86604 -3.26746,15.62791 -1.246794,4.12732 -3.288957,9.35096 -4.643233,11.93053 -0.752376,1.41877 -0.945844,1.99917 -0.752376,2.06366 0.580404,0.21497 13.306302,0.38694 38.715104,0.47292 14.31664,0.0645 26.22567,0.15048 26.50512,0.23647 0.32245,0.086 0.47293,0.043 0.47293,-0.17198 0,-0.17197 0.42992,-1.2038 0.96734,-2.30012 0.66639,-1.35427 0.88135,-1.99917 0.68788,-2.06365 -0.12898,-0.0645 -11.75856,-0.12898 -25.83873,-0.17198 -21.08802,-0.043 -25.70975,-0.10748 -26.37614,-0.34394 -0.77388,-0.30095 -0.83836,-0.27945 -3.224471,0.90285 -1.33278,0.64489 -3.138481,1.44026 -4.019836,1.74121 l -1.569241,0.53741 0.128979,-0.66639 c 0.171972,-0.85985 0.558908,-1.28978 2.278624,-2.49358 4.514254,-3.18148 8.512595,-6.87887 10.081835,-9.28647 2.73005,-4.2133 3.99834,-8.66307 3.99834,-14.08017 -0.0215,-5.05167 -0.92435,-8.81355 -3.26746,-13.54277 -0.94585,-1.87019 -2.02067,-3.41793 -4.53575,-6.40594 -1.05333,-1.28979 -1.977675,-2.60107 -2.042165,-2.92352 -0.193468,-0.96734 0.04299,-1.52624 0.644894,-1.52624 0.601901,0 1.934681,1.28978 5.245131,5.07316 3.74038,4.27779 6.25547,9.41544 7.20131,14.70357 0.47292,2.51508 0.47292,7.56675 0.043,9.88837 l -0.30095,1.61223 23.64609,-0.0215 23.64609,-0.0215 0.27946,-0.79537 c 0.47292,-1.41877 0.88135,-3.78338 1.37577,-7.97518 0.51592,-4.55725 0.66639,-14.74657 0.34394,-21.38897 l -0.19346,-3.54692 H 128.4904 c -17.88504,-0.0215 -32.782084,-0.086 -33.126028,-0.17197 l -0.623397,-0.17197 z m 88.651357,-6.6424 c -0.42993,0.15048 -0.19347,1.16081 0.77387,3.31045 0.53741,1.2253 1.31129,3.33195 1.74122,4.68623 0.40843,1.35428 0.90285,2.98801 1.11781,3.6114 0.19347,0.6449 0.45143,1.16081 0.55891,1.18231 0.12898,0 0.68789,-0.68789 1.26829,-1.56924 1.91318,-2.79454 6.12649,-5.71806 9.52293,-6.55642 1.11781,-0.27945 3.46092,-0.34394 14.78955,-0.38694 l 13.43528,-0.043 v -1.1823 c 0,-0.6449 0.086,-1.52625 0.21497,-1.93468 0.15047,-0.49442 0.12898,-0.81687 0,-0.94585 -0.21497,-0.21496 -42.84242,-0.36544 -43.42283,-0.17197 z m 22.57127,-4.27779 c 0,0.34394 0.086,0.88135 0.19347,1.16081 l 0.21497,0.53741 4.36378,-0.10749 c 2.4076,-0.043 4.57874,-0.12897 4.8152,-0.17197 0.47292,-0.10748 0.90285,-1.33278 0.5804,-1.63373 -0.10748,-0.0645 -2.42909,-0.21496 -5.15914,-0.27945 l -5.00868,-0.15048 z m -37.57579,-0.40844 c -1.33278,0.77388 -2.81604,2.66556 -3.41794,4.36378 -0.32244,0.96734 -0.36544,1.59074 -0.27945,4.55725 0.0645,1.89169 0.10748,7.54525 0.10748,12.57542 0,9.75939 -0.10748,11.15666 -1.31128,18.03553 -1.28979,7.50226 -3.54692,14.35962 -7.17982,21.86188 -1.69821,3.50393 -1.99916,3.97685 -3.05249,4.8797 -0.94584,0.81686 -1.2253,1.2038 -1.54775,2.23563 -0.21496,0.68789 -0.81686,2.17114 -1.31128,3.28896 -0.51591,1.11781 -1.09632,2.62256 -1.28979,3.33195 -0.19346,0.70938 -0.79536,2.66556 -1.31128,4.36377 -0.51591,1.69822 -0.94584,3.37495 -0.94584,3.69739 0,0.38694 0.25795,0.92435 0.66639,1.39727 0.66639,0.75238 0.66639,0.75238 2.47209,0.75238 1.76271,0 1.8272,-0.0215 2.62257,-0.73088 0.45142,-0.40843 1.1823,-1.35428 1.61223,-2.10665 1.2253,-2.02067 3.13848,-4.70772 8.31913,-11.60808 0.88135,-1.18231 3.11698,-4.14882 4.94418,-6.62091 6.87886,-9.22198 9.78088,-13.04835 10.74822,-14.18766 3.074,-3.6114 4.17031,-5.65356 5.20214,-9.73789 l 0.70939,-2.83753 v -7.73872 c 0,-7.3088 -0.0215,-7.8677 -0.49442,-10.10333 -0.6019,-2.79454 -1.95618,-6.96485 -2.81604,-8.68457 -1.28978,-2.51508 -5.82553,-9.05001 -7.2443,-10.38278 -1.48325,-1.39727 -3.41794,-1.61224 -5.20214,-0.60191 z m 5.22364,3.69739 c 0.34394,0.15048 0.62339,0.51592 0.75237,1.01034 0.27946,1.05332 -0.10748,14.4886 -0.53741,18.63742 -1.26829,12.18849 -2.49359,17.5411 -6.08349,26.52662 -1.76271,4.44976 -2.79454,6.53492 -3.31046,6.6209 -0.75237,0.15048 -0.42993,-1.50475 1.11782,-6.019 1.71971,-4.90119 2.92352,-9.52293 3.76188,-14.18766 1.2038,-6.85737 2.90202,-23.94704 2.90202,-29.19218 0,-3.6114 0.15047,-3.97684 1.39727,-3.39644 z m -71.58318,-4.55724 c -0.6019,0.086 -1.50475,0.36544 -2.04216,0.64489 -1.547747,0.79537 -4.299293,3.6114 -4.299293,4.42827 0,0.086 0.644894,0.086 1.461759,0.0215 0.795368,-0.086 5.288124,-0.15048 9.995844,-0.15048 l 8.5341,-0.0215 v -0.53741 c 0,-0.49442 0.53741,-3.37494 0.77387,-4.2348 0.10748,-0.34394 -0.30095,-0.36544 -6.62091,-0.34394 -3.69739,0.0215 -7.22281,0.10748 -7.80321,0.19347 z m 21.7759,-7.73873 c -2.19263,1.16081 -3.67589,4.55725 -4.27779,9.78089 -0.15048,1.24679 -0.19347,2.32162 -0.10748,2.4076 0.086,0.10748 3.31045,0.17197 7.13682,0.17197 6.81437,0 6.98634,0 7.07233,-0.42993 0.53741,-2.60107 0.85986,-3.93385 1.28979,-5.3956 0.30095,-0.96734 0.53741,-1.8702 0.53741,-2.02067 0,-0.19347 -0.6234,-0.25796 -2.4076,-0.19347 -1.33278,0.0215 -4.14882,0.043 -6.23397,0.0215 l -3.82637,-0.043 v -0.62339 c 0,-0.79537 1.03183,-1.91319 1.91318,-2.08516 0.68789,-0.15047 0.81687,-0.49442 0.53741,-1.54774 -0.17197,-0.58041 -0.5804,-0.58041 -1.63373,-0.043 z m 59.69564,-1.31128 c -0.5589,0.10748 -0.70938,0.30095 -1.03183,1.26829 -0.5804,1.76271 -2.08515,8.72756 -1.91318,8.89953 0.21496,0.21497 4.08433,0.77387 7.13682,1.03183 1.48326,0.12898 2.94501,0.27946 3.28896,0.34394 0.77387,0.15048 0.77387,0.10749 -0.38694,-5.61057 -0.53741,-2.60107 -0.96734,-5.05166 -0.96734,-5.4386 v -0.68789 l -2.73005,0.0215 c -1.52625,0.0215 -3.031,0.086 -3.39644,0.17197 z m -40.45631,0.0215 c -1.44027,0.6019 -3.031,3.15998 -4.2563,6.81437 -0.68789,1.97768 -1.37577,5.05167 -1.39727,5.99751 0,0.66639 0.0215,0.66639 1.35428,0.81687 0.73087,0.086 6.0405,0.19346 11.78005,0.25795 l 10.46877,0.12898 0.70938,-1.46176 c 0.45143,-0.96734 1.11782,-1.91318 1.93468,-2.70855 l 1.2468,-1.2038 -9.50143,0.10748 c -8.70606,0.10748 -9.56592,0.15048 -10.2968,0.51592 -0.96734,0.49442 -3.48243,2.79454 -3.97684,3.65439 -0.21497,0.34395 -0.49442,0.6234 -0.6449,0.6234 -0.38693,0 -0.36544,-0.10748 0.38694,-1.52625 0.98883,-1.84869 2.92351,-3.84786 4.53575,-4.70772 1.24679,-0.66639 1.52625,-0.73088 3.24596,-0.73088 l 1.89169,-0.0215 -0.10748,-0.62339 c -0.38694,-1.89169 -1.91319,-4.2348 -3.50392,-5.30963 -1.03183,-0.73087 -2.94502,-1.03182 -3.86936,-0.62339 z m 56.75062,-10.167823 c -0.45142,0.171972 -0.32244,2.128153 0.36544,5.503093 0.34395,1.74121 0.73088,4.14881 0.85986,5.37411 0.30095,2.90202 0.75238,5.4386 1.13931,6.36295 l 0.32245,0.75238 0.36544,-0.73088 c 0.27945,-0.55891 0.45142,-1.78421 0.66639,-5.03017 0.38693,-5.93302 0.36544,-7.58825 -0.10748,-9.54443 -0.23647,-0.90285 -0.47293,-1.91318 -0.53742,-2.257124 -0.12897,-0.558908 -0.19346,-0.580404 -1.48325,-0.558908 -0.73088,0 -1.46176,0.06449 -1.59074,0.128979 z m 21.96937,-3.181474 c -0.42993,0.881354 -1.11781,3.482424 -1.37577,5.395607 -1.48325,10.40428 -1.52625,10.8772 -1.52625,14.5101 0,1.99917 0.086,3.78338 0.19347,3.93386 0.27945,0.47292 1.67672,0.68788 4.44977,0.68788 1.71971,0 2.66556,-0.086 2.83753,-0.25796 0.27945,-0.27945 0.36544,-5.22363 0.10748,-8.27613 l -0.12898,-1.76271 -1.01033,0.90285 c -1.07482,0.94585 -2.98801,2.14965 -3.80487,2.40761 -0.40844,0.10748 -0.49442,0.0645 -0.49442,-0.36544 0,-0.73088 0.98883,-2.10666 3.05249,-4.21331 l 1.8272,-1.87019 0.15048,-3.33195 c 0.0645,-1.8272 0.19347,-4.299289 0.25795,-5.481594 l 0.12898,-2.171141 -1.99917,-0.36544 c -1.11781,-0.193468 -2.08515,-0.365439 -2.17114,-0.365439 -0.086,0 -0.30095,0.279453 -0.49442,0.623397 z m -12.27447,-0.300951 c -0.6019,1.655227 -0.83836,2.794539 -1.46176,6.749888 -0.90285,5.63207 -1.84869,12.46794 -1.84869,13.34929 v 0.6449 h 4.40677 c 2.4291,0 4.47126,0 4.57874,0 0.086,0 0.17198,-0.45143 0.19347,-1.01034 0.23646,-4.38527 1.44026,-12.83338 2.4506,-16.917703 0.34394,-1.397269 0.62339,-2.66556 0.62339,-2.816035 0,-0.343943 -8.83504,-0.343943 -8.94252,0 z M 135.36926,79.736716 c -0.30095,0.386936 -0.75237,1.139312 -1.01033,1.676723 -0.27945,0.537411 -1.33278,2.321616 -2.34311,3.976843 -1.03183,1.655227 -2.04216,3.439432 -2.25713,3.976843 -0.85986,2.149645 -0.73088,2.042163 -2.88052,1.956177 l -1.89169,-0.06449 -0.73088,0.816865 c -1.05333,1.203801 -1.56924,2.515084 -1.56924,4.041332 0,1.053326 0.27945,2.149645 1.44026,5.567581 1.71972,5.11616 2.36461,7.67423 2.17114,8.70606 -0.0645,0.38694 -0.0645,1.01034 0,1.33278 0.15048,0.68789 0.25796,0.70939 4.44977,0.98884 l 2.06366,0.12898 -0.42993,-1.69822 c -0.23646,-0.92435 -0.6449,-2.70855 -0.92435,-3.97684 -0.30095,-1.2683 -1.07482,-3.97685 -1.74121,-5.99751 -1.33278,-4.105827 -1.48326,-5.438607 -0.83836,-7.394784 0.81686,-2.407602 1.8057,-3.546914 3.07399,-3.546914 0.27945,0 0.77387,-0.279454 1.07482,-0.6019 0.66639,-0.709383 5.63207,-8.985516 5.63207,-9.372452 0,-0.236461 -1.89169,-1.203802 -2.32161,-1.203802 -0.25796,0 -0.66639,0.300951 -0.96735,0.687887 z m 31.79325,-8.921027 c -0.043,0.214965 -0.30095,1.096319 -0.5589,1.956177 -0.45143,1.547745 -0.42993,1.977673 0.086,1.977673 0.40843,0 18.95987,9.372452 20.29265,10.275303 2.25713,1.483255 3.84786,4.385276 5.4386,9.952857 0.47292,1.655226 0.94585,3.20297 1.05333,3.460928 0.36544,0.838361 2.36461,13.263313 2.36461,14.725063 0,1.18231 -0.043,1.37578 -0.36544,1.31129 -0.42993,-0.086 -0.58041,-0.53741 -1.2468,-4.36378 -0.51591,-2.77304 -1.61223,-9.97435 -1.61223,-10.447275 0,-0.128979 -0.6234,-0.193469 -1.44026,-0.150476 l -1.46176,0.06449 -0.0645,0.709381 c -0.043,0.40843 0.21496,1.87019 0.5804,3.26746 0.36544,1.39727 1.05333,4.40677 1.52625,6.70689 0.73088,3.52542 2.53658,9.54443 3.26746,10.96319 0.17197,0.34395 0.55891,0.38694 3.43943,0.38694 h 3.24597 l -0.10748,-1.46176 c -0.0645,-0.79537 -0.40844,-2.32162 -0.77388,-3.37494 -0.36544,-1.07482 -0.85985,-3.24597 -1.09632,-4.8797 -0.25795,-1.61223 -0.79536,-4.92268 -1.2038,-7.35178 -0.94584,-5.610575 -0.94584,-5.976014 -0.0645,-6.857369 0.79537,-0.795368 0.79537,-0.924347 0.043,-3.697389 -0.96734,-3.589907 -2.85903,-6.792878 -5.09466,-8.663069 -1.69822,-1.375773 -9.80238,-6.040503 -20.0132,-11.500601 -2.85902,-1.526248 -4.66473,-2.515084 -5.4386,-2.988006 -0.64489,-0.386936 -0.68788,-0.386936 -0.79537,-0.0215 z m -0.0215,-10.318296 c -0.88136,0.214965 -1.8272,1.483255 -1.8272,2.450596 0,0.236461 0.34394,1.203801 0.77387,2.106652 1.54775,3.288957 1.18231,2.923517 4.49276,4.406772 4.40677,1.977673 5.07316,2.321616 19.84122,10.791218 4.51426,2.60107 5.37411,3.310453 6.98635,5.847034 0.32245,0.494418 0.68788,0.859858 0.77387,0.816865 0.30095,-0.193468 0,-4.019836 -0.45142,-5.675063 -0.32245,-1.26829 -0.36544,-1.698219 -0.17198,-2.278623 0.32245,-0.988837 1.09632,-1.655227 2.12815,-1.784206 0.75238,-0.107482 0.94585,-0.04299 1.52625,0.537412 0.90285,0.90285 0.90285,1.977673 -0.0215,2.90202 l -0.66639,0.66639 0.66639,6.878864 c 0.94585,9.608913 0.77388,8.706062 1.74122,8.856537 1.01033,0.171972 1.44026,0.96734 1.63373,3.116989 0.086,0.90285 0.21496,1.39727 0.32244,1.22529 0.086,-0.15047 0.47292,-1.461755 0.83836,-2.859024 0.38694,-1.418765 0.88136,-3.030999 1.09632,-3.611403 0.40844,-1.010333 0.40844,-1.03183 -0.15047,-4.191808 -0.88136,-5.223637 -1.37577,-7.330289 -2.25713,-10.017345 -1.05333,-3.181475 -1.84869,-4.600241 -3.50392,-6.255467 -1.8272,-1.805702 -3.46093,-2.601071 -14.63908,-7.029339 -9.93136,-3.955347 -12.46794,-4.944184 -14.18766,-5.546084 -0.94584,-0.343943 -2.27862,-0.816865 -2.94501,-1.053326 -0.68789,-0.257958 -1.31129,-0.429929 -1.39727,-0.429929 -0.10748,0.0215 -0.36544,0.08599 -0.6019,0.128978 z m -18.91688,-6.986346 c -0.30095,0.279454 -0.81686,1.203802 -1.13931,2.106652 -0.85986,2.300121 -7.54525,14.058678 -10.18932,17.885046 -0.70938,1.03183 -1.13931,1.891688 -1.13931,2.257128 0,0.537411 0.10748,0.623397 1.28979,0.924347 0.70938,0.193468 1.99917,0.730879 2.83753,1.182305 l 1.54774,0.859858 0.53741,-0.537412 c 0.27946,-0.30095 1.2253,-2.042162 2.06366,-3.86936 1.91319,-4.105822 4.2348,-8.770552 5.15915,-10.318296 0.38694,-0.644894 1.52625,-2.773042 2.51509,-4.707723 1.95617,-3.783375 2.02066,-4.105822 1.07482,-5.137651 -0.73088,-0.795369 -1.54775,-1.117816 -2.81604,-1.117816 -0.92434,0 -1.31128,0.107483 -1.74121,0.472922 z m 21.174,-1.397269 0.0215,1.461759 0.90285,0.66639 c 1.33278,1.010333 2.62257,1.590737 3.46093,1.590737 h 0.75238 l -0.32245,0.752376 c -0.6234,1.526248 -0.53741,1.676723 2.10665,3.052495 5.05167,2.622567 9.99585,4.858198 13.88671,6.319957 1.61223,0.6019 3.65439,1.418765 4.53575,1.827198 l 1.59074,0.730879 -0.10749,-1.074822 c -0.17197,-1.827199 -1.89168,-3.439432 -3.69739,-3.439432 -0.53741,0 -0.98883,-0.214965 -1.67672,-0.795369 -0.49442,-0.429929 -1.46176,-1.117815 -2.10665,-1.526248 -2.4506,-1.569241 -6.62091,-4.578744 -8.38362,-6.040502 -2.17114,-1.805702 -2.62256,-1.891688 -4.2133,-0.773872 -0.5804,0.408432 -1.11782,0.752375 -1.18231,0.752375 -0.086,0 -0.12897,-0.236461 -0.12897,-0.494418 0,-0.279454 -0.17198,-0.773872 -0.38694,-1.074822 -0.36544,-0.580405 -2.51508,-2.085156 -4.12732,-2.923518 l -0.92435,-0.451425 z m -6.019,-6.040502 c -0.36544,0.322447 -0.85986,0.924347 -1.07482,1.375773 -0.51592,1.031829 -2.23563,6.298459 -2.66556,8.211643 -0.19347,0.816865 -0.49442,1.827199 -0.68789,2.257128 -1.01033,2.364609 -2.23563,6.23397 -3.86936,12.209983 -0.66639,2.472092 -1.39727,5.180644 -1.63373,6.019006 -0.21497,0.816865 -0.75238,2.859028 -1.16081,4.514254 -0.40843,1.655227 -1.07482,4.256297 -1.46176,5.804041 -0.96734,3.69739 -2.27862,9.26497 -2.27862,9.63041 0,0.171971 0.15047,0.6019 0.34394,0.988837 0.23646,0.494418 0.45143,0.644893 0.70938,0.558907 0.73088,-0.236461 1.74122,1.311284 1.74122,2.687052 0,0.73088 -0.12898,1.03183 -0.66639,1.52625 -0.81687,0.75238 -2.21414,1.18231 -2.90202,0.85986 -0.25796,-0.10748 -0.75238,-0.55891 -1.09632,-1.01033 -0.32245,-0.42993 -0.88136,-1.11782 -1.2468,-1.52625 -0.62339,-0.752376 -0.62339,-0.773873 -0.25795,-1.39727 0.64489,-1.117815 0.5804,-1.203801 -1.99917,-2.171141 -1.18231,-0.429929 -3.074,-1.504752 -5.99751,-3.417936 -1.76271,-1.160808 -2.62257,-1.289787 -3.86936,-0.644893 -0.40844,0.193468 -1.03183,0.730879 -1.39727,1.182304 -0.6019,0.752376 -0.66639,0.967341 -0.66639,2.36461 0.0215,1.203801 0.15047,1.848695 0.62339,2.923517 0.85986,2.020669 1.97768,5.675059 2.94502,9.802379 1.1823,4.98718 1.39727,5.15915 2.62256,2.38611 1.11782,-2.4291 1.65523,-3.031 3.58991,-3.82637 2.19264,-0.88135 4.34228,-1.03183 6.01901,-0.40843 1.26829,0.47292 3.52541,2.30012 3.76188,3.031 0.23646,0.77387 0.49441,0.45142 1.13931,-1.46176 0.36544,-1.03183 1.8272,-5.11616 3.24596,-9.071504 4.79371,-13.284805 5.37411,-14.918536 6.6639,-18.658918 0.70938,-2.042162 1.41877,-3.93385 1.59074,-4.191807 0.30095,-0.451426 0.23646,-0.451426 -0.92435,0.128978 -2.12815,1.053326 -4.04133,0.709383 -5.52459,-1.010333 -1.74121,-1.977673 -0.5804,-3.654396 1.44027,-2.063659 1.1823,0.924347 1.69821,1.074822 2.68705,0.730879 1.67672,-0.558907 3.20297,-3.116985 3.22447,-5.352616 0,-1.117815 -0.086,-1.418765 -0.70938,-2.321616 -1.01034,-1.440262 -1.33278,-2.343113 -1.33278,-3.6329 0,-1.63373 0.34394,-2.66556 1.22529,-3.6329 0.98884,-1.096319 1.59074,-1.397269 3.074,-1.590737 l 1.1823,-0.150476 -0.12898,-3.503921 c -0.23646,-5.63207 -0.73088,-7.760218 -1.93468,-8.383615 -0.88135,-0.472922 -1.59074,-0.386936 -2.34311,0.236461 z m 1.28979,3.740382 c 0.10748,0 0.21496,0.08599 0.21496,0.214965 0,0.386936 -0.66639,-0.06449 -0.96734,-0.66639 -0.47292,-0.881355 -0.38694,-1.053326 0.10748,-0.257958 0.23646,0.386936 0.51592,0.709383 0.6449,0.709383 z m -28.22484,44.605133 c 0.73088,0.730879 0.75237,0.816865 0.66639,2.042163 -0.086,1.160808 -0.0645,1.246794 0.30095,1.053326 0.21496,-0.128979 0.49442,-0.150476 0.6019,-0.08599 0.40843,0.257957 0.47292,1.526248 0.086,2.450595 -0.38693,0.967345 -0.32244,3.245965 0.15048,4.772215 0.10748,0.40843 0.30095,1.18231 0.38694,1.74121 0.23646,1.44027 -0.27946,1.37578 -0.92435,-0.10748 -0.70938,-1.56924 -1.8487,-5.18064 -1.99917,-6.319959 -0.10748,-0.795369 -0.043,-1.03183 0.38693,-1.504752 0.49442,-0.537411 0.49442,-0.537411 0.043,-0.30095 -0.66639,0.343943 -0.81687,0.30095 -1.54775,-0.322447 -0.75237,-0.623397 -1.05332,-1.719716 -0.66639,-2.472091 0.34395,-0.644894 1.31129,-1.69822 1.56924,-1.69822 0.10749,0 0.53741,0.343943 0.94585,0.752376 z m 19.15333,-49.398841 -1.44026,0.08599 -1.05332,2.085155 c -1.52625,3.009503 -1.52625,2.902021 -0.32245,3.224468 1.2253,0.343943 2.27862,1.397269 3.031,3.009503 0.68788,1.504751 0.64489,2.493588 -0.12898,3.955346 -5.86853,10.834211 -7.91069,14.789558 -11.02768,21.388968 -0.47292,0.96734 -1.93468,2.429098 -2.45059,2.429098 -0.42993,0 -0.58041,0.386936 -1.59074,4.191808 -0.47292,1.784205 -1.01033,3.6329 -1.16081,4.105822 -0.17197,0.451425 -0.38694,1.246794 -0.45143,1.719716 l -0.15047,0.902851 3.07399,1.504751 c 1.69822,0.838362 3.33195,1.569241 3.6329,1.63373 0.53741,0.107483 0.55891,0.08599 1.01034,-2.085155 0.81686,-3.869361 2.10665,-8.96402 3.33194,-13.26331 0.6449,-2.30012 1.65523,-5.847034 2.19264,-7.846204 1.2253,-4.385275 3.11699,-10.189317 4.01984,-12.252976 0.36544,-0.838361 1.1823,-3.546914 1.7842,-6.019006 1.09632,-4.342283 2.53659,-8.340622 3.15998,-8.727558 0.25796,-0.171972 -2.45059,-0.193468 -5.4601,-0.04299 z" /></g><g
       id="prokop"
       inkscape:label="Pro Kop"
       transform="translate(34.747321,-7.6862898)"
       style="fill:#ffffff"><path
         style="font-size:38.9404px;font-family:'Segoe UI Variable';-inkscape-font-specification:'Segoe UI Variable, @opsz=36.0,wght=700';font-variation-settings:'opsz' 36, 'wght' 700;text-align:center;text-anchor:middle;stroke-width:1.00348"
         d="m -220.41359,-22.828216 v 8.879476 h -6.14148 v -27.265885 h 9.48792 q 5.09572,0 7.75766,2.224622 2.68095,2.224623 2.68095,6.578798 0,4.525301 -3.00419,7.054145 -2.98517,2.528844 -8.02385,2.528844 z m 0,-13.67097 v 8.955531 h 2.56687 q 2.28167,0 3.51757,-1.197873 1.2359,-1.197874 1.2359,-3.44151 0,-2.072512 -1.21689,-3.19433 -1.19787,-1.121818 -3.44151,-1.121818 z m 39.54884,22.550446 h -6.90203 l -4.04995,-7.37738 q -0.8176,-1.502096 -1.57815,-2.129553 -0.74155,-0.627458 -1.82534,-0.627458 h -1.6542 v 10.134391 h -6.14148 v -27.265885 h 9.7351 q 5.0767,0 7.49146,2.110539 2.43378,2.110539 2.43378,5.628105 0,2.566872 -1.52111,4.677411 -1.52111,2.091525 -4.25911,2.890108 v 0.07606 q 1.04576,0.418305 1.95843,1.407026 0.91267,0.969708 1.9204,2.718983 z m -16.00967,-22.588474 v 7.738644 h 2.66194 q 2.11054,0 3.25137,-1.102804 1.14083,-1.121818 1.14083,-2.966163 0,-1.76829 -1.06477,-2.718983 -1.06478,-0.950694 -3.21335,-0.950694 z m 32.0954,23.063821 q -5.8943,0 -9.67806,-3.802774 -3.78375,-3.821787 -3.78375,-9.944252 0,-6.464715 3.8408,-10.457627 3.8408,-3.992912 10.05833,-3.992912 5.87529,0 9.56398,3.821787 3.7077,3.821788 3.7077,10.07735 0,6.426687 -3.8408,10.362557 -3.82179,3.935871 -9.8682,3.935871 z m 0.11409,-5.380925 q 3.21334,0 5.17177,-2.26265 1.95843,-2.281664 1.95843,-6.312604 0,-4.202064 -1.90139,-6.54077 -1.90139,-2.338705 -5.0767,-2.338705 -3.27039,0 -5.26684,2.414761 -1.99646,2.395747 -1.99646,6.350631 0,4.011926 1.99646,6.350632 1.99645,2.338705 5.11473,2.338705 z"
         id="text1"
         transform="matrix(0,-1.003475,0.99653703,0,0,0)"
         aria-label="PRO" /><path
         d="M 52.508614,224.6501 H 31.432974 L 9.5728807,193.11509 q -0.4706719,-0.67986 -0.8890469,-1.41202 -0.418375,-0.78445 -1.0982343,-1.88269 H 7.3241151 v 34.82972 h -16.89189 v -74.99372 h 16.89189 v 33.5223 h 0.2614844 q 0.3660781,-0.67986 0.83675,-1.46431 0.5229687,-0.78446 1.2551249,-1.88269 L 30.805411,149.65638 H 49.998364 L 24.216005,185.00907 Z M 178.70098,200.22746 v 24.42264 h -16.89189 v -74.99372 h 26.09614 q 14.01556,0 21.33712,6.11874 7.37386,6.11873 7.37386,18.09472 0,12.44665 -8.26291,19.40214 -8.21061,6.95548 -22.06928,6.95548 z m 0,-37.60145 v 24.63183 h 7.06007 q 6.27563,0 9.67493,-3.29471 3.39929,-3.2947 3.39929,-9.46573 0,-5.70036 -3.347,-8.78588 -3.2947,-3.08551 -9.46573,-3.08551 z"
         id="text2"
         style="font-size:107.104px;font-family:'Segoe UI Variable';-inkscape-font-specification:'Segoe UI Variable, @opsz=36.0,wght=700';font-variation-settings:'opsz' 36, 'wght' 700;text-align:center;text-anchor:middle;stroke-width:1.01201"
         transform="scale(0.98813398,1.0120085)"
         aria-label="K    P" /></g><path
       style="font-size:29.7576px;font-family:'Segoe UI Variable';-inkscape-font-specification:'Segoe UI Variable, @opsz=36.0,wght=700';font-variation-settings:'opsz' 36, 'wght' 700;text-align:center;text-anchor:middle;fill:#ffffff;stroke-width:0.527194"
       d="m 256.29358,204.71087 v 5.35229 h 17.73717 v 4.51598 h -17.73717 v 5.35229 h -3.98367 v -15.22056 z m 17.73717,-14.88606 v 11.9869 h -21.72084 v -11.52694 h 4.0594 v 7.02488 h 4.72587 v -6.53704 h 4.02912 v 6.53704 h 4.84705 v -7.48484 z m 0,-1.00355 -21.72084,-7.16427 v -5.33835 l 21.72084,-6.997 v 4.73901 l -4.34719,1.37988 v 7.33153 l 4.34719,1.352 z m -8.34601,-7.08064 v -5.22684 l -7.58866,2.13255 q -0.40897,0.1115 -0.7422,0.20907 -0.34839,0.0976 -0.8028,0.19514 v 0.11151 q 0.37867,0.0837 0.74221,0.1812 0.36353,0.0976 0.78764,0.22301 z m 8.34601,-37.63328 v 4.4463 H 261.0346 q -0.83309,0 -1.63588,-0.0139 -0.80279,-0.0139 -1.80249,-0.0418 v 0.1115 q 0.49985,0.15332 0.90881,0.27877 0.39383,0.12545 0.75736,0.23695 l 14.76835,4.68325 v 3.6797 l -14.61688,4.76688 q -0.43927,0.13939 -0.78765,0.23695 -0.34838,0.0837 -1.02999,0.27877 v 0.12544 q 1.33293,-0.0418 2.37808,-0.0557 1.04514,-0.0139 2.04485,-0.0139 h 12.01159 v 4.12573 h -21.72084 v -6.66249 l 12.87498,-4.08391 q 0.68161,-0.22301 1.21176,-0.3624 0.51499,-0.13938 1.2875,-0.34845 v -0.0837 q -0.81795,-0.25089 -1.2875,-0.39027 -0.46956,-0.15332 -1.24205,-0.40421 l -12.84469,-4.08391 v -6.42553 z"
       id="text41"
       aria-label="TEAM" /></g></svg>
