<?xml version="1.0" encoding="UTF-8" standalone="no"?>
<!-- Created with Inkscape (http://www.inkscape.org/) -->

<svg
   width="150.91356mm"
   height="150.70607mm"
   viewBox="0 0 150.91356 150.70606"
   version="1.1"
   id="svg1"
   xml:space="preserve"
   inkscape:export-filename="favicon.svg"
   inkscape:export-xdpi="96"
   inkscape:export-ydpi="96"
   xmlns:inkscape="http://www.inkscape.org/namespaces/inkscape"
   xmlns:sodipodi="http://sodipodi.sourceforge.net/DTD/sodipodi-0.dtd"
   xmlns="http://www.w3.org/2000/svg"
   xmlns:svg="http://www.w3.org/2000/svg"><sodipodi:namedview
     id="namedview1"
     pagecolor="#ffffff"
     bordercolor="#000000"
     borderopacity="0.25"
     inkscape:showpageshadow="2"
     inkscape:pageopacity="0.0"
     inkscape:pagecheckerboard="0"
     inkscape:deskcolor="#d1d1d1"
     inkscape:document-units="mm"><inkscape:page
       x="0"
       y="0"
       width="150.91356"
       height="150.70607"
       id="page25"
       margin="0"
       bleed="0"
       inkscape:export-filename="favicon.svg"
       inkscape:export-xdpi="96"
       inkscape:export-ydpi="96" /></sodipodi:namedview><defs
     id="defs1" /><g
     inkscape:label="Layer 1"
     inkscape:groupmode="layer"
     id="layer1"
     transform="translate(-31.890083,-58.603803)"
     style="display:inline"><circle
       style="fill:#ffffff;stroke:none;stroke-width:0.307999"
       id="path25"
       cx="107.36208"
       cy="134.07169"
       r="74.367882" /><g
       inkscape:label="Layer 1"
       id="layer1-0"
       transform="translate(-178.09811,21.790026)"><path
         style="color:#000000;display:none;fill:#000000;stroke:none;stroke-width:1.03168;-inkscape-stroke:none"
         d="M 103.69776,23.045038 C 73.465444,18.35339 45.13219,39.074123 40.440542,69.306421 35.748893,99.538734 56.469627,127.87197 86.701932,132.56363 116.93423,137.25527 145.26748,116.53454 149.95914,86.30224 154.65078,56.069942 133.93005,27.736685 103.69776,23.045038 Z m -0.27285,1.758208 c 29.28206,4.544184 49.32021,31.944072 44.77602,61.226144 -4.5442,29.28208 -31.94408,49.32022 -61.22615,44.77603 C 57.692705,126.26122 37.654565,98.861354 42.198749,69.579272 46.742934,40.297201 74.142821,20.259061 103.42491,24.803246 Z"
         id="path1-2" /><path
         style="color:#000000;display:none;fill:#000000;stroke:none;stroke-width:1.22747;-inkscape-stroke:none"
         d="M 148.32825,128.6722 C 123.12102,154.93194 81.366644,155.78579 55.106915,130.57853 28.84717,105.37129 27.993299,63.616941 53.200545,37.357205 78.407787,11.097475 120.16215,10.243596 146.42189,35.450849 c 26.25975,25.207251 27.1136,66.961621 1.90636,93.221351 z m -1.52717,-1.46596 C 171.21604,101.77187 170.39029,61.392987 144.95593,36.978027 119.52155,12.563061 79.142677,13.388809 54.727721,38.823173 30.312762,64.257541 31.138505,104.63639 56.572878,129.05137 c 25.434373,24.41496 65.813232,23.58923 90.228202,-1.84513 z"
         id="path1-2-8" /><path
         style="color:#000000;display:none;fill:#000000;stroke-width:1;stroke-dasharray:none"
         d="M 149.61761,97.979152 C 139.09223,124.98674 108.63231,138.36288 81.62473,127.83749 54.617155,117.31211 41.24101,86.852191 51.766393,59.844613 62.291775,32.837038 92.752404,19.459076 119.75998,29.984458 c 27.00757,10.525382 40.38301,40.987119 29.85763,67.994694 z m -2.27294,-0.885809 C 157.39111,71.314699 144.6521,42.305667 118.87346,32.259225 93.094814,22.212781 64.085786,34.951783 54.039343,60.730427 43.992895,86.509082 56.732608,115.51629 82.511252,125.56273 108.2899,135.60917 137.29822,122.87201 147.34467,97.093343 Z"
         id="path3-1" /><g
         id="g26"
         transform="matrix(1.6230873,0,0,1.6230873,122.48661,-7.355634)"><g
           transform="matrix(0.00920856,0,0,-0.00920856,57.329517,117.51094)"
           fill="#000000"
           stroke="none"
           id="Korpa2-6"
           style="fill:#000000"><path
             d="m 5028,8963 -67,-4 -49,-97 c -71,-140 -71,-135 -15,-150 57,-16 106,-65 141,-140 32,-70 30,-116 -6,-184 -273,-504 -368,-688 -513,-995 -22,-45 -90,-113 -114,-113 -20,0 -27,-18 -74,-195 -22,-83 -47,-169 -54,-191 -8,-21 -18,-58 -21,-80 l -7,-42 143,-70 c 79,-39 155,-73 169,-76 25,-5 26,-4 47,97 38,180 98,417 155,617 30,107 77,272 102,365 57,204 145,474 187,570 17,39 55,165 83,280 51,202 118,388 147,406 12,8 -114,9 -254,2 z"
             id="path1-0-0"
             style="fill:#000000;fill-opacity:1" /><path
             d="m 5390,8914 c -17,-15 -40,-43 -50,-64 -24,-48 -104,-293 -124,-382 -9,-38 -23,-85 -32,-105 -47,-110 -104,-290 -180,-568 -31,-115 -65,-241 -76,-280 -10,-38 -35,-133 -54,-210 -19,-77 -50,-198 -68,-270 -45,-172 -106,-431 -106,-448 0,-8 7,-28 16,-46 11,-23 21,-30 33,-26 34,11 81,-61 81,-125 0,-34 -6,-48 -31,-71 -38,-35 -103,-55 -135,-40 -12,5 -35,26 -51,47 -15,20 -41,52 -58,71 -29,35 -29,36 -12,65 30,52 27,56 -93,101 -55,20 -143,70 -279,159 -82,54 -122,60 -180,30 -19,-9 -48,-34 -65,-55 -28,-35 -31,-45 -31,-110 1,-56 7,-86 29,-136 40,-94 92,-264 137,-456 55,-232 65,-240 122,-111 52,113 77,141 167,178 102,41 202,48 280,19 59,-22 164,-107 175,-141 11,-36 23,-21 53,68 17,48 85,238 151,422 223,618 250,694 310,868 33,95 66,183 74,195 14,21 11,21 -43,-6 -99,-49 -188,-33 -257,47 -81,92 -27,170 67,96 55,-43 79,-50 125,-34 78,26 149,145 150,249 0,52 -4,66 -33,108 -47,67 -62,109 -62,169 0,76 16,124 57,169 46,51 74,65 143,74 l 55,7 -6,163 c -11,262 -34,361 -90,390 -41,22 -74,18 -109,-11 z m 60,-174 c 5,0 10,-4 10,-10 0,-18 -31,3 -45,31 -22,41 -18,49 5,12 11,-18 24,-33 30,-33 z M 4137,6665 c 34,-34 35,-38 31,-95 -4,-54 -3,-58 14,-49 10,6 23,7 28,4 19,-12 22,-71 4,-114 -18,-45 -15,-151 7,-222 5,-19 14,-55 18,-81 11,-67 -13,-64 -43,5 -33,73 -86,241 -93,294 -5,37 -2,48 18,70 23,25 23,25 2,14 -31,-16 -38,-14 -72,15 -35,29 -49,80 -31,115 16,30 61,79 73,79 5,0 25,-16 44,-35 z"
             id="path2-0-8"
             style="fill:#000000;fill-opacity:1" /><path
             d="m 5670,8633 1,-68 42,-31 c 62,-47 122,-74 161,-74 h 35 l -15,-35 c -29,-71 -25,-78 98,-142 235,-122 465,-226 646,-294 75,-28 170,-66 211,-85 l 74,-34 -5,50 c -8,85 -88,160 -172,160 -25,0 -46,10 -78,37 -23,20 -68,52 -98,71 -114,73 -308,213 -390,281 -101,84 -122,88 -196,36 -27,-19 -52,-35 -55,-35 -4,0 -6,11 -6,23 0,13 -8,36 -18,50 -17,27 -117,97 -192,136 l -43,21 z"
             id="path3-5-5"
             style="fill:#000000;fill-opacity:1" /><path
             d="m 4685,8568 c -14,-13 -38,-56 -53,-98 -40,-107 -351,-654 -474,-832 -33,-48 -53,-88 -53,-105 0,-25 5,-29 60,-43 33,-9 93,-34 132,-55 l 72,-40 25,25 c 13,14 57,95 96,180 89,191 197,408 240,480 18,30 71,129 117,219 91,176 94,191 50,239 -34,37 -72,52 -131,52 -43,0 -61,-5 -81,-22 z"
             id="path4-5-8"
             style="fill:#000000;fill-opacity:1" /><path
             d="m 5565,8243 c -41,-10 -85,-69 -85,-114 0,-11 16,-56 36,-98 72,-153 55,-136 209,-205 205,-92 236,-108 923,-502 210,-121 250,-154 325,-272 15,-23 32,-40 36,-38 14,9 0,187 -21,264 -15,59 -17,79 -8,106 15,46 51,77 99,83 35,5 44,2 71,-25 42,-42 42,-92 -1,-135 l -31,-31 31,-320 c 44,-447 36,-405 81,-412 47,-8 67,-45 76,-145 4,-42 10,-65 15,-57 4,7 22,68 39,133 18,66 41,141 51,168 19,47 19,48 -7,195 -41,243 -64,341 -105,466 -49,148 -86,214 -163,291 -85,84 -161,121 -681,327 -462,184 -580,230 -660,258 -44,16 -106,38 -137,49 -32,12 -61,20 -65,20 -5,-1 -17,-4 -28,-6 z"
             id="path5-3-1"
             style="fill:#000000;fill-opacity:1" /><path
             d="m 5566,7763 c -2,-10 -14,-51 -26,-91 -21,-72 -20,-92 4,-92 19,0 882,-436 944,-478 105,-69 179,-204 253,-463 22,-77 44,-149 49,-161 17,-39 110,-617 110,-685 0,-55 -2,-64 -17,-61 -20,4 -27,25 -58,203 -24,129 -75,464 -75,486 0,6 -29,9 -67,7 l -68,-3 -3,-33 c -2,-19 10,-87 27,-152 17,-65 49,-205 71,-312 34,-164 118,-444 152,-510 8,-16 26,-18 160,-18 h 151 l -5,68 c -3,37 -19,108 -36,157 -17,50 -40,151 -51,227 -12,75 -37,229 -56,342 -44,261 -44,278 -3,319 37,37 37,43 2,172 -45,167 -133,316 -237,403 -79,64 -456,281 -931,535 -133,71 -217,117 -253,139 -30,18 -32,18 -37,1 z"
             id="path6-1-6"
             style="fill:#000000;fill-opacity:1" /><path
             d="m 4087,7348 c -14,-18 -35,-53 -47,-78 -13,-25 -62,-108 -109,-185 -48,-77 -95,-160 -105,-185 -40,-100 -34,-95 -134,-91 l -88,3 -34,-38 c -49,-56 -73,-117 -73,-188 0,-49 13,-100 67,-259 80,-238 110,-357 101,-405 -3,-18 -3,-47 0,-62 7,-32 12,-33 207,-46 l 96,-6 -20,79 c -11,43 -30,126 -43,185 -14,59 -50,185 -81,279 -62,191 -69,253 -39,344 38,112 84,165 143,165 13,0 36,13 50,28 31,33 262,418 262,436 0,11 -88,56 -108,56 -12,0 -31,-14 -45,-32 z"
             id="path7-7-2"
             style="fill:#000000;fill-opacity:1" /><path
             d="m 7544,6595 c -28,-77 -39,-130 -68,-314 -42,-262 -86,-580 -86,-621 v -30 h 205 c 113,0 208,0 213,0 4,0 8,21 9,47 11,204 67,597 114,787 16,65 29,124 29,131 0,16 -411,16 -416,0 z"
             id="path8-2-9"
             style="fill:#000000;fill-opacity:1" /><path
             d="m 8115,6581 c -20,-41 -52,-162 -64,-251 -69,-484 -71,-506 -71,-675 0,-93 4,-176 9,-183 13,-22 78,-32 207,-32 80,0 124,4 132,12 13,13 17,243 5,385 l -6,82 -47,-42 c -50,-44 -139,-100 -177,-112 -19,-5 -23,-3 -23,17 0,34 46,98 142,196 l 85,87 7,155 c 3,85 9,200 12,255 l 6,101 -93,17 c -52,9 -97,17 -101,17 -4,0 -14,-13 -23,-29 z"
             id="path9-4-5"
             style="fill:#000000;fill-opacity:1" /><path
             d="m 7093,6433 c -21,-8 -15,-99 17,-256 16,-81 34,-193 40,-250 14,-135 35,-253 53,-296 l 15,-35 17,34 c 13,26 21,83 31,234 18,276 17,353 -5,444 -11,42 -22,89 -25,105 -6,26 -9,27 -69,26 -34,0 -68,-3 -74,-6 z"
             id="path10-1-9"
             style="fill:#000000;fill-opacity:1" /><path
             d="m 4453,5960 c -67,-28 -141,-147 -198,-317 -32,-92 -64,-235 -65,-279 0,-31 1,-31 63,-38 34,-4 281,-9 548,-12 l 487,-6 33,68 c 21,45 52,89 90,126 l 58,56 -442,-5 c -405,-5 -445,-7 -479,-24 -45,-23 -162,-130 -185,-170 -10,-16 -23,-29 -30,-29 -18,0 -17,5 18,71 46,86 136,179 211,219 58,31 71,34 151,34 l 88,1 -5,29 c -18,88 -89,197 -163,247 -48,34 -137,48 -180,29 z"
             id="path12-1-3"
             style="fill:#000000;fill-opacity:1" /><path
             d="m 6335,5961 c -26,-5 -33,-14 -48,-59 -27,-82 -97,-406 -89,-414 10,-10 190,-36 332,-48 69,-6 137,-13 153,-16 36,-7 36,-5 -18,261 -25,121 -45,235 -45,253 v 32 l -127,-1 c -71,-1 -141,-4 -158,-8 z"
             id="path13-0-1"
             style="fill:#000000;fill-opacity:1" /><path
             d="m 3558,5900 c -102,-54 -171,-212 -199,-455 -7,-58 -9,-108 -5,-112 4,-5 154,-8 332,-8 317,0 325,0 329,20 25,121 40,183 60,251 14,45 25,87 25,94 0,9 -29,12 -112,9 -62,-1 -193,-2 -290,-1 l -178,2 v 29 c 0,37 48,89 89,97 32,7 38,23 25,72 -8,27 -27,27 -76,2 z"
             id="path14-9-4"
             style="fill:#000000;fill-opacity:1" /><path
             d="m 2545,5540 c -28,-4 -70,-17 -95,-30 -72,-37 -200,-168 -200,-206 0,-4 30,-4 68,-1 37,4 246,7 465,7 l 397,1 v 25 c 0,23 25,157 36,197 5,16 -14,17 -308,16 -172,-1 -336,-5 -363,-9 z"
             id="path15-2-6"
             style="fill:#000000;fill-opacity:1" /><path
             d="m 5632,5500 c -62,-36 -131,-124 -159,-203 -15,-45 -17,-74 -13,-212 3,-88 5,-351 5,-585 0,-454 -5,-519 -61,-839 -60,-349 -165,-668 -334,-1017 -79,-163 -93,-185 -142,-227 -44,-38 -57,-56 -72,-104 -10,-32 -38,-101 -61,-153 -24,-52 -51,-122 -60,-155 -9,-33 -37,-124 -61,-203 -24,-79 -44,-157 -44,-172 0,-18 12,-43 31,-65 31,-35 31,-35 115,-35 82,0 85,1 122,34 21,19 55,63 75,98 57,94 146,219 387,540 41,55 145,193 230,308 320,429 455,607 500,660 143,168 194,263 242,453 l 33,132 v 360 c 0,340 -1,366 -23,470 -28,130 -91,324 -131,404 -60,117 -271,421 -337,483 -69,65 -159,75 -242,28 z m 243,-172 c 16,-7 29,-24 35,-47 13,-49 -5,-674 -25,-867 -59,-567 -116,-816 -283,-1234 -82,-207 -130,-304 -154,-308 -35,-7 -20,70 52,280 80,228 136,443 175,660 56,319 135,1114 135,1358 0,168 7,185 65,158 z"
             id="path16-3-2"
             style="fill:#000000;fill-opacity:1" /><path
             d="m 7380,5481 c 0,-16 4,-41 9,-54 l 10,-25 203,5 c 112,2 213,6 224,8 22,5 42,62 27,76 -5,3 -113,10 -240,13 l -233,7 z"
             id="path17-0-7"
             style="fill:#000000;fill-opacity:1" /><path
             d="m 6330,5282 c -20,-7 -9,-54 36,-154 25,-57 61,-155 81,-218 19,-63 42,-139 52,-168 9,-30 21,-54 26,-55 6,0 32,32 59,73 89,130 285,266 443,305 52,13 161,16 688,18 l 625,2 v 55 c 0,30 4,71 10,90 7,23 6,38 0,44 -10,10 -1993,17 -2020,8 z"
             id="path18-6-3"
             style="fill:#000000;fill-opacity:1" /><path
             d="m 2206,4973 c 16,-330 11,-828 -9,-988 -27,-207 -99,-552 -152,-727 -58,-192 -153,-435 -216,-555 -35,-66 -44,-93 -35,-96 27,-10 619,-18 1801,-22 666,-3 1220,-7 1233,-11 15,-4 22,-2 22,8 0,8 20,56 45,107 31,63 41,93 32,96 -6,3 -547,6 -1202,8 -981,2 -1196,5 -1227,16 -36,14 -39,13 -150,-42 -62,-30 -146,-67 -187,-81 l -73,-25 6,31 c 8,40 26,60 106,116 210,148 396,320 469,432 127,196 186,403 186,655 -1,235 -43,410 -152,630 -44,87 -94,159 -211,298 -49,60 -92,121 -95,136 -9,45 2,71 30,71 28,0 90,-60 244,-236 174,-199 291,-438 335,-684 22,-117 22,-352 2,-460 l -14,-75 1100,1 1100,1 13,37 c 22,66 41,176 64,371 24,212 31,686 16,995 l -9,165 H 3767 c -832,1 -1525,4 -1541,8 l -29,8 z"
             id="path19-3-3"
             style="fill:#000000;fill-opacity:1" /><path
             d="m 6805,4782 c -22,-22 -48,-53 -58,-70 l -18,-32 h 475 c 332,0 476,3 476,11 0,14 58,100 78,117 13,10 -76,12 -449,12 h -465 z"
             id="path22-0-7"
             style="fill:#000000;fill-opacity:1" /><path
             d="m 7878,4792 c -18,-17 -44,-49 -57,-72 l -24,-43 153,6 c 84,4 203,7 264,7 h 112 l 10,58 c 6,31 11,58 10,58 0,1 -98,4 -218,8 l -216,7 z"
             id="path23-8-3"
             style="fill:#000000;fill-opacity:1" /><path
             d="m 6648.0331,4519.033 c -6,-13 -13,-43 -17,-67 -5,-42 -5,-43 28,-49 19,-3 236,-4 484,-3 l 450,3 8,64 c 4,35 5,66 2,70 -4,3 -218,6 -475,6 h -469 z"
             id="path24-3"
             style="fill:#000000;fill-opacity:1" /><path
             d="m 6656,4253 c 9,-39 30,-77 50,-94 14,-11 102,-15 500,-19 l 482,-5 -15,29 c -8,16 -21,48 -27,70 l -12,41 -492,3 -492,2 z"
             id="path26-4"
             style="fill:#000000;fill-opacity:1" /><path
             d="m 7756,4258 c 10,-34 34,-81 52,-100 13,-16 38,-18 232,-18 h 217 l 22,56 c 16,43 19,60 10,70 -9,11 -64,14 -276,14 h -264 z"
             id="path27-9"
             style="fill:#000000;fill-opacity:1" /><path
             d="m 7772.9106,4516.5415 c 10,-34 34,-81 52,-100 13,-16 38,-18 232.0001,-18 h 217 l 22,56 c 16,43 19,60 10,70 -9,11 -64,14 -276,14 h -264.0001 z"
             id="path27-0"
             style="fill:#000000;fill-opacity:1" /><path
             d="m 6750,4014 c 0,-15 63,-83 101,-110 l 42,-29 196,-3 c 108,-1 327,-3 487,-5 l 291,-2 -48,53 c -27,30 -49,62 -49,71 0,16 -22,18 -277,24 -348,9 -743,9 -743,1 z"
             id="path28-6"
             style="fill:#000000;fill-opacity:1" /><path
             d="m 7878,3973 c 12,-22 37,-54 57,-71 34,-30 40,-32 119,-32 h 84 l 28,55 c 21,39 26,57 18,65 -6,6 -77,13 -168,17 l -158,6 z"
             id="path29-5"
             style="fill:#000000;fill-opacity:1" /><path
             d="m 2908,3363 -45,-98 25,-7 c 14,-4 520,-8 1125,-8 l 1100,-2 34,87 c 19,48 32,90 28,93 -4,4 -465,8 -1025,9 -653,1 -1046,6 -1095,12 -42,6 -82,11 -89,11 -7,0 -33,-44 -58,-97 z"
             id="path30-5"
             style="fill:#000000;fill-opacity:1" /><path
             d="m 2734,3123 c -28,-20 -155,-175 -149,-181 4,-4 424,-8 933,-8 510,-1 1049,-5 1197,-9 l 270,-6 45,90 c 24,50 41,93 38,97 -4,3 -512,7 -1130,9 -618,1 -1139,5 -1158,9 -19,4 -40,3 -46,-1 z"
             id="path31-2"
             style="fill:#000000;fill-opacity:1" /><path
             d="m 1645,2412 c -3,-15 -35,-92 -70,-172 -35,-80 -81,-190 -103,-245 -22,-55 -56,-138 -76,-183 -43,-99 -45,-140 -12,-179 21,-25 32,-28 112,-34 133,-11 150,2 264,206 40,72 89,159 110,195 21,36 57,103 80,150 23,47 55,103 70,125 22,32 70,129 70,140 0,5 -136,14 -292,19 l -146,5 z"
             id="path32-7"
             style="fill:#000000;fill-opacity:1" /><path
             d="m 2295,2370 c -36,-73 -127,-290 -214,-509 -77,-195 -80,-205 -67,-236 22,-52 50,-65 139,-65 49,0 89,5 106,15 30,15 73,76 113,160 31,66 233,448 267,505 30,50 76,159 70,164 -2,2 -91,6 -198,8 l -193,3 z"
             id="path33-2"
             style="fill:#000000;fill-opacity:1" /><path
             d="m 2911,2363 c -13,-32 -54,-141 -91,-243 -37,-102 -89,-237 -114,-300 -26,-63 -49,-134 -53,-157 -5,-39 -3,-45 30,-78 34,-34 37,-35 111,-35 128,0 142,13 250,230 83,166 168,323 229,423 38,63 79,145 90,182 6,19 1,20 -146,22 -83,1 -182,5 -218,8 l -66,6 z"
             id="path34-0"
             style="fill:#000000;fill-opacity:1" /><path
             d="m 3574,2395 c -2,-5 -31,-82 -65,-170 -33,-88 -80,-216 -104,-285 -24,-69 -59,-163 -79,-209 -35,-82 -35,-85 -19,-118 29,-63 57,-75 155,-71 80,3 89,5 118,33 18,17 84,133 159,280 71,137 152,291 180,340 54,94 104,195 99,200 -9,9 -441,9 -444,0 z"
             id="path35-0"
             style="fill:#000000;fill-opacity:1" /><path
             d="m 4200,2328 c -18,-46 -42,-110 -55,-143 -13,-33 -60,-166 -105,-295 -87,-252 -89,-266 -44,-320 30,-35 65,-44 150,-35 93,10 115,32 186,185 85,182 248,500 274,535 15,20 70,140 64,140 -227,0 -364,3 -397,8 l -42,7 z"
             id="path36-5"
             style="fill:#000000;fill-opacity:1" /><path
             style="font-variation-settings:'opsz' 36, 'wght' 700;fill:#000000;fill-opacity:1;stroke:none;stroke-width:2.80001;stroke-dasharray:none"
             id="path59-4"
             d="m 135.22211,99.329336 c 0.16387,0.006 0.32631,-0.01728 0.48815,-0.03947 0.1147,-0.01884 0.23003,-0.03408 0.34211,-0.06597 0.0579,-0.01648 0.10992,-0.03617 0.16612,-0.05647 0.14017,-0.05345 0.27564,-0.118899 0.40995,-0.185547 0.0266,-0.01469 0.0531,-0.02955 0.0798,-0.04407 0.0376,-0.02048 0.0946,-0.04929 0.12877,-0.07048 0.0972,-0.06031 0.18721,-0.128733 0.27681,-0.199536 0.15597,-0.118226 0.30032,-0.251052 0.45653,-0.368813 0.18364,-0.124661 0.33992,-0.282202 0.4902,-0.444116 0.48093,-0.518369 -0.25216,-1.198505 -0.73309,-0.680133 v 0 c -0.11165,0.120401 -0.22514,0.239392 -0.36395,0.32943 -0.16088,0.123852 -0.31345,0.257905 -0.4739,0.382373 -0.0873,0.07107 -0.0121,0.01143 -0.11244,0.0859 -0.01,0.0071 -0.0181,0.01566 -0.0281,0.02204 -0.0537,0.03396 -0.11291,0.05845 -0.16663,0.0924 -0.10005,0.05017 -0.20131,0.09886 -0.30516,0.140589 -0.0353,0.01291 -0.0725,0.03002 -0.10948,0.03852 -0.0637,0.01466 -0.1292,0.02058 -0.19335,0.03317 -0.11693,0.01603 -0.23382,0.03626 -0.35231,0.0302 -0.7071,0 -0.7071,1 0,1 z"
             transform="matrix(46.51931,0,0,-46.51931,-2210.2848,11057.297)" /><path
             style="font-variation-settings:'opsz' 36, 'wght' 700;fill:#000000;fill-opacity:1;stroke:none;stroke-width:0.326944;stroke-dasharray:none"
             d="m 138.78687,107.962 c -0.56459,-0.34425 -1.38932,-1.62935 -2.45081,-3.81903 -1.1072,-2.28393 -1.72671,-3.9223 -1.78142,-4.71131 l -0.0216,-0.308938 0.34681,-0.04609 c 0.37494,-0.04983 0.87874,-0.187881 1.3498,-0.369872 0.57313,-0.221421 2.08133,-1.103918 2.23168,-1.305817 l 0.0569,-0.07653 0.0501,0.0827 c 0.15274,0.252249 0.2265,0.79111 0.16617,1.213587 -0.0537,0.375886 -0.14235,0.639125 -0.37287,1.107029 -0.31843,0.646411 -0.43466,1.338631 -0.39555,2.355661 0.0365,0.94873 0.1911,1.77273 0.47589,2.53587 0.47456,1.27174 0.72205,2.05135 0.81098,2.555 0.0565,0.319 0.033,0.67349 -0.0517,0.78538 -0.0854,0.11284 -0.2321,0.11367 -0.41466,0.002 z"
             id="path60-6"
             transform="matrix(46.51931,0,0,-46.51931,-2210.2848,11057.297)" /><path
             style="font-variation-settings:'opsz' 36, 'wght' 700;fill:#000000;fill-opacity:1;stroke:none;stroke-width:0.144591;stroke-dasharray:none"
             d="m 165.14535,50.503812 c -0.36691,-0.113988 -0.87661,-0.530477 -1.20556,-0.985076 -0.0964,-0.13306 -0.47278,-0.772951 -0.55498,-0.943236 -0.12181,-0.252343 -0.17402,-0.422935 -0.13594,-0.443252 0.0677,-0.03603 0.32545,0.239135 0.70163,0.749061 0.34043,0.461452 0.56878,0.719212 0.81799,0.923364 0.1587,0.129978 0.25409,0.179965 0.36553,0.191506 0.15212,0.01576 0.25179,0.06891 0.31424,0.167678 0.0497,0.0786 0.0625,0.149863 0.0404,0.228277 -0.0368,0.132293 -0.15425,0.170457 -0.34345,0.111678 z"
             id="path89-7"
             transform="matrix(46.51931,0,0,-46.51931,-2210.2848,11057.297)" /></g><g
           id="g25"><rect
             style="fill:#000000;stroke-width:1.04583"
             id="rect1"
             width="32.372814"
             height="2.7776678"
             x="73.841209"
             y="93.432426" /><path
             sodipodi:type="star"
             style="fill:#000000;stroke-width:1"
             id="path5-0"
             inkscape:flatsided="true"
             sodipodi:sides="3"
             sodipodi:cx="162.96066"
             sodipodi:cy="311.2923"
             sodipodi:r1="2.7358785"
             sodipodi:r2="1.3679392"
             sodipodi:arg1="0.82537685"
             sodipodi:arg2="1.8725744"
             inkscape:rounded="0"
             inkscape:randomized="0"
             d="m 164.81635,313.30263 -4.52453,-1.40842 3.482,-3.21416 z"
             transform="matrix(0.4618163,-0.07752153,0.07058117,0.50722736,-23.490952,-50.70616)"
             inkscape:transform-center-x="0.095579228"
             inkscape:transform-center-y="-0.25609761" /><rect
             style="fill:#000000;stroke-width:1"
             id="rect5"
             width="28.838995"
             height="23.330423"
             x="78.519119"
             y="70.695595" /><rect
             style="fill:#000000;stroke-width:1"
             id="rect6"
             width="4.9530859"
             height="3.101465"
             x="76.250885"
             y="90.55423" /><rect
             style="fill:#000000;stroke-width:1"
             id="rect7"
             width="34.069824"
             height="19.812344"
             x="78.287666"
             y="68.519943" /><rect
             style="fill:#000000;stroke-width:1"
             id="rect8"
             width="4.9530859"
             height="4.9067955"
             x="105.13617"
             y="86.897278" /><rect
             style="fill:#000000;stroke-width:1.97906"
             id="rect9"
             width="1.2961346"
             height="2.1756546"
             x="110.32071"
             y="68.010742" /><rect
             style="fill:#000000;stroke-width:1"
             id="rect10"
             width="25.552368"
             height="7.4990649"
             x="83.685921"
             y="66.753502"
             transform="rotate(-0.23465958)" /><ellipse
             style="fill:#000000;stroke-width:1.13993"
             id="path11-9"
             cx="109.52242"
             cy="67.968704"
             rx="1.8821096"
             ry="1.6529833" /><ellipse
             style="fill:#000000;stroke-width:1.28365"
             id="path12-3"
             cx="79.531723"
             cy="69.914436"
             rx="1.9499881"
             ry="2.0657146" /><rect
             style="fill:#000000;stroke-width:1.09436"
             id="rect12"
             width="8.8414898"
             height="3.8189681"
             x="89.605698"
             y="63.682579" /><ellipse
             style="fill:#000000;stroke-width:1.14354"
             id="path13-3"
             cx="90.936546"
             cy="63.532135"
             rx="0.6364947"
             ry="0.59020418" /><rect
             style="fill:#000000;stroke-width:1.06365"
             id="rect14"
             width="11.225451"
             height="8.7720537"
             x="121.08327"
             y="73.148994" /><path
             style="fill:#000000;stroke-width:0.750888"
             id="path14-6"
             sodipodi:type="arc"
             sodipodi:cx="-10.844885"
             sodipodi:cy="-146.63045"
             sodipodi:rx="4.6672068"
             sodipodi:ry="4.4172521"
             sodipodi:start="0"
             sodipodi:end="2.0943951"
             sodipodi:arc-type="slice"
             d="m -6.1776781,-146.63045 a 4.6672068,4.4172521 0 0 1 -2.3336034,3.82546 4.6672068,4.4172521 0 0 1 -4.6672065,0 l 2.333603,-3.82546 z"
             transform="matrix(-0.42768596,0.90392739,-0.80259907,-0.59651885,0,0)" /><rect
             style="fill:#000000;stroke-width:1"
             id="rect15"
             width="2.8968122"
             height="8.0030575"
             x="120.3241"
             y="73.925995" /><path
             sodipodi:type="star"
             style="fill:#000000;stroke-width:1"
             id="path15-5"
             inkscape:flatsided="true"
             sodipodi:sides="3"
             sodipodi:cx="400.30002"
             sodipodi:cy="235.14128"
             sodipodi:r1="14.173891"
             sodipodi:r2="7.0869455"
             sodipodi:arg1="1.5522799"
             sodipodi:arg2="2.5994775"
             inkscape:rounded="0"
             inkscape:randomized="0"
             d="m 400.56245,249.31274 -12.66649,-21.02991 24.54569,-0.45455 z"
             transform="matrix(0.16645887,0.01205482,-0.06576357,0.41181663,82.027284,-25.545941)"
             inkscape:transform-center-x="-0.44414868"
             inkscape:transform-center-y="1.4326283" /><rect
             style="fill:#000000;stroke-width:1.25316"
             id="rect16"
             width="2.4109449"
             height="4.8900785"
             x="128.21638"
             y="65.597336"
             transform="matrix(0.99903883,-0.04383386,0.05080256,0.99870872,0,0)" /><rect
             style="fill:#000000;stroke-width:1.05083"
             id="rect18"
             width="3.9231215"
             height="1.8400482"
             x="125.37671"
             y="65.32589" /><rect
             style="fill:#000000;stroke-width:1.06361"
             id="rect19"
             width="4.2879367"
             height="3.3141694"
             x="78.985168"
             y="75.725998"
             transform="matrix(1,0,0.46759024,0.88394534,0,0)" /><rect
             style="fill:#000000;stroke-width:1"
             id="rect21"
             width="1.3092936"
             height="6.9556227"
             x="106.82027"
             y="78.336044"
             transform="rotate(-10.118561)" /><rect
             style="fill:#000000;stroke-width:1.18818"
             id="rect22"
             width="2.4958467"
             height="11.57945"
             x="131.00665"
             y="25.604198"
             transform="matrix(0.97244805,0.23311967,-0.17121032,0.9852345,0,0)" /><rect
             style="fill:#000000;stroke-width:1.31184"
             id="rect23"
             width="1.5711523"
             height="4.8443866"
             x="108.27835"
             y="45.418201"
             transform="rotate(8.1840663)" /><rect
             style="fill:#000000;stroke-width:1"
             id="rect24"
             width="0.83322942"
             height="1.9442019"
             x="95.206856"
             y="48.10582" /><rect
             style="fill:#000000;stroke-width:1"
             id="rect25"
             width="0.63828069"
             height="2.0375884"
             x="108.09908"
             y="-10.102022"
             transform="rotate(25.258324)" /><rect
             style="fill:#000000;stroke-width:0.819925"
             id="rect26"
             width="1.8934369"
             height="0.82853085"
             x="109.45394"
             y="11.952535"
             transform="matrix(0.97754851,0.21071049,-0.09566199,0.99541388,0,0)" /><path
             style="fill:#000000;stroke:#000000;stroke-width:0.661252"
             d="m 242.69574,194.94506 c -0.0422,-0.0722 -0.40856,-1.54836 -0.81404,-3.28043 -1.14171,-4.87687 -2.33171,-9.27895 -3.59448,-13.29668 -1.63832,-5.21259 -2.01309,-6.75305 -2.12822,-8.74781 -0.0846,-1.46615 -0.0396,-1.97332 0.27812,-3.13085 0.46965,-1.71125 1.38164,-3.71036 2.20325,-4.82962 0.65426,-0.89128 2.05419,-1.74961 2.8536,-1.74961 0.95874,0 1.78413,-0.72466 3.08876,-2.71182 2.3051,-3.51103 7.39862,-12.09811 7.80389,-13.15644 0.11907,-0.31093 0.0456,-0.47016 -0.38324,-0.83104 -0.2918,-0.24553 -0.60323,-0.44641 -0.69207,-0.44641 -0.0898,0 -0.16153,-0.93278 -0.16153,-2.09948 0,-1.15471 0.0417,-2.09948 0.0927,-2.09948 0.28674,0 2.50433,1.04201 4.00845,1.88351 l 1.73928,0.97306 0.67189,-0.7722 c 0.67113,-0.77133 1.48734,-2.36194 7.26424,-14.15635 1.62604,-3.3198 3.80914,-7.57123 4.85133,-9.44764 2.95403,-5.31853 6.1524,-11.72564 6.39541,-12.81153 0.11972,-0.53495 0.16223,-1.19756 0.0945,-1.47246 -0.0678,-0.2749 -0.61163,-0.9783 -1.20861,-1.56311 l -1.08541,-1.06329 1.00472,-2.129662 c 0.5526,-1.171314 1.07401,-2.129662 1.1587,-2.129662 0.29323,0 1.53257,0.999959 2.25125,1.816418 0.97036,1.102388 2.07306,3.271206 2.35163,4.625266 0.37739,1.83437 0.12118,2.47242 -4.28744,10.67712 -6.53785,12.16731 -9.4959,17.93205 -13.48009,26.27036 -1.30651,2.73433 -1.45526,2.963 -2.81676,4.33001 -1.00797,1.01207 -1.60737,1.47723 -2.00632,1.55702 -0.77867,0.15573 -0.95434,0.60244 -2.61688,6.65413 -0.76183,2.77307 -1.59265,5.69791 -1.84628,6.49964 -0.52539,1.66083 -0.95423,3.56805 -0.9587,4.26374 -0.003,0.43868 0.20812,0.57578 2.92748,1.90268 4.42923,2.16123 7.78607,3.65922 8.20153,3.65993 0.20472,3.5e-4 0.46461,-0.11067 0.57752,-0.24672 0.1129,-0.13605 0.64107,-2.20272 1.1737,-4.5926 1.40417,-6.30051 3.20882,-13.32956 5.92254,-23.06808 4.14473,-14.87389 6.31895,-21.9775 8.35292,-27.29067 1.36636,-3.56921 2.0074,-5.52655 2.95094,-9.01025 0.48215,-1.78018 1.1548,-4.26019 1.49479,-5.511128 0.87031,-3.202226 2.05372,-5.916531 2.80762,-8.572764 0.2446,-0.861797 1.02434,-2.603152 1.05181,-2.630623 0.0275,-0.02747 -0.17815,1.061065 -0.18955,1.616888 l -0.0207,1.010588 1.31217,0.290949 c 0.7217,0.160023 1.32753,0.298488 1.34629,0.3077 0.0188,0.0092 -0.14832,0.430085 -0.3713,0.935271 -0.65959,1.494439 -2.9836,8.728429 -3.85322,11.994009 -0.44342,1.66513 -1.12544,3.82876 -1.5156,4.80808 -2.7504,6.90364 -6.63655,20.63015 -12.64136,44.65131 -1.49138,5.96601 -2.99657,12.13249 -3.34488,13.70328 -0.69652,3.14119 -0.68481,3.43165 0.19339,4.79835 0.36534,0.56857 0.51003,0.65609 1.08461,0.65609 0.51852,0 0.78294,0.12392 1.21325,0.56861 1.01215,1.04596 1.69213,3.31347 1.37388,4.58145 -0.29732,1.18462 -2.48941,2.73543 -4.23701,2.9975 -1.32834,0.19919 -2.21053,-0.56053 -5.36028,-4.61613 -0.58933,-0.75883 -0.59193,-0.87501 -0.0437,-1.95682 0.24056,-0.47474 0.43739,-1.00951 0.43739,-1.18838 0,-0.55965 -0.76251,-1.07767 -2.73259,-1.85643 -3.16802,-1.25229 -4.6834,-2.07724 -10.09344,-5.49469 -2.75229,-1.73858 -3.8933,-2.20098 -5.12671,-2.0776 -1.20467,0.1205 -2.55896,0.83853 -3.66195,1.94152 -1.46734,1.46734 -1.56831,1.75161 -1.55897,4.38915 0.008,2.38569 0.13199,3.00639 1.01506,5.10017 1.27515,3.02342 3.07229,9.00563 4.64354,15.45719 0.48043,1.97264 0.98855,3.96058 1.12917,4.41765 l 0.25566,0.83104 h -2.33446 c -1.28396,0 -2.36902,-0.059 -2.41125,-0.13122 z"
             id="path37"
             sodipodi:nodetypes="cssssssssssssscsssscscsssssssssscssssssssssscssssssssssssssssssscssscscc"
             transform="matrix(0.26458333,0,0,0.26458333,29.590038,12.045502)" /><path
             style="fill:#000000;stroke:#000000;stroke-width:0.661252"
             d="m 246.1015,172.22569 c -1.4767,-1.26401 -1.86508,-2.87586 -1.03369,-4.28999 0.44001,-0.74842 1.97219,-2.42703 2.2153,-2.42703 0.0675,0 0.5611,0.39071 1.09688,0.86824 1.37674,1.22706 1.57631,1.7264 1.43336,3.58622 -0.11339,1.47509 -0.12921,1.51691 -0.76414,2.01979 -1.32353,1.04825 -1.94672,1.09957 -2.94771,0.24277 z"
             id="path38"
             transform="matrix(0.26458333,0,0,0.26458333,29.590038,12.045502)" /><path
             style="fill:#000000;stroke:#000000;stroke-width:0.661252"
             d="m 251.07,192.81264 c 1.46237,-2.84126 2.21661,-3.64725 4.36621,-4.66581 0.86603,-0.41035 2.16508,-0.91423 2.88678,-1.11971 1.66893,-0.4752 4.66014,-0.64947 6.15896,-0.35883 0.98675,0.19134 3.19018,1.10883 3.37287,1.40443 0.0864,0.13979 -0.5486,4.55203 -0.67302,4.67645 -0.0484,0.0484 -0.34906,-0.10747 -0.66812,-0.34639 -1.41687,-1.06102 -2.91466,-1.5211 -4.954,-1.52173 -1.2296,-3.8e-4 -1.50873,0.0621 -2.29743,0.51448 -0.94513,0.54208 -1.83171,1.46695 -2.73172,2.84971 l -0.54091,0.83104 h -3.04235 -3.04235 z"
             id="path39-7"
             transform="matrix(0.26458333,0,0,0.26458333,29.590038,12.045502)" /><path
             style="fill:#000000;stroke-width:0.165313"
             d="m 246.68855,172.78947 c -0.5305,-0.31945 -1.21438,-0.94627 -1.51931,-1.39257 -0.42241,-0.61821 -0.64593,-1.31276 -0.64593,-2.00707 0,-0.51332 0.0793,-0.85959 0.28801,-1.25682 0.30337,-0.57754 1.27758,-1.77438 1.84245,-2.2635 0.14586,-0.12629 0.28033,-0.22963 0.29883,-0.22963 0.0185,0 -0.16214,0.20175 -0.40142,0.44833 -0.47968,0.49429 -0.98469,1.08899 -1.30001,1.53088 -0.72685,1.01858 -0.82536,2.16272 -0.27964,3.24761 0.19506,0.38778 0.36221,0.61463 0.75324,1.02233 0.76246,0.79494 1.35084,1.06524 1.96491,0.90268 0.27674,-0.0733 0.3898,-0.0615 0.14979,0.0155 -0.15849,0.0509 -0.66006,0.13623 -0.80374,0.13676 -0.0495,1.8e-4 -0.20576,-0.0694 -0.34718,-0.15451 z"
             id="path40-6"
             transform="matrix(0.26458333,0,0,0.26458333,29.590038,12.045502)" /><rect
             style="fill:#000000;stroke:#000000;stroke-width:0.953528"
             id="rect41"
             width="15.524596"
             height="3.7175665"
             x="117.57384"
             y="62.987629" /><path
             sodipodi:type="star"
             style="fill:#000000;stroke:#000000;stroke-width:1"
             id="path42"
             inkscape:flatsided="true"
             sodipodi:sides="3"
             sodipodi:cx="292.25"
             sodipodi:cy="133.75"
             sodipodi:r1="2.8201284"
             sodipodi:r2="1.4100643"
             sodipodi:arg1="1.3473197"
             sodipodi:arg2="2.3945173"
             inkscape:rounded="0"
             inkscape:randomized="0"
             d="m 292.875,136.5 -3.31907,-3.58373 4.76314,-1.08254 z"
             transform="matrix(0.57049731,0.27547908,-0.35342219,0.44468084,-12.671542,-92.563056)"
             inkscape:transform-center-x="-0.30767019"
             inkscape:transform-center-y="0.14106964" /><rect
             style="fill:#000000;stroke:#000000;stroke-width:1"
             id="rect42"
             width="0.31419271"
             height="1.9347656"
             x="108.79343"
             y="68.2565"
             transform="rotate(-11.583607)" /><rect
             style="fill:#000000;stroke:#000000;stroke-width:0.724674"
             id="rect43"
             width="0.55144894"
             height="0.57421392"
             x="117.1594"
             y="-13.780006"
             transform="matrix(0.9009688,0.43388388,-0.23754085,0.97137755,0,0)" /><path
             style="fill:#000000;stroke:#000000;stroke-width:0.668132"
             d="m 285.76534,138.66348 c -2.96375,-0.79649 -5.80322,-4.43854 -4.69452,-6.02143 0.60915,-0.86967 1.64672,-0.63238 3.85889,0.88255 0.66172,0.45315 1.38938,0.87066 1.61703,0.92779 0.36055,0.0905 0.47417,0.34699 0.88137,1.98963 0.2571,1.03716 0.50928,2.02496 0.5604,2.1951 0.0775,0.25807 -0.019,0.30743 -0.58189,0.29773 -0.37115,-0.006 -1.10973,-0.12851 -1.64128,-0.27137 z"
             id="path43"
             transform="matrix(0.26458333,0,0,0.26458333,29.590038,12.045502)" /><path
             style="fill:#000000;stroke:#000000;stroke-width:0.668132"
             d="m 349.05964,180.79307 c -0.59971,-3.65944 -0.85828,-6.62799 -0.6497,-7.45903 0.0645,-0.25703 0.42151,-0.80071 0.79332,-1.20818 1.30713,-1.43249 1.33679,-1.75572 0.471,-5.1338 -1.84989,-7.21778 -5.35963,-13.00254 -9.6979,-15.98409 -4.07831,-2.8029 -14.71806,-8.86735 -30.61714,-17.45118 -4.278,-2.30967 -8.31103,-4.51451 -8.96229,-4.89965 -0.65126,-0.38514 -1.32607,-0.67292 -1.49957,-0.6395 -0.22848,0.044 -0.43501,0.47455 -0.74906,1.56151 -0.23848,0.82543 -0.45015,1.52545 -0.47036,1.55562 -0.0353,0.0526 -2.92908,-0.6897 -4.07201,-1.04454 l -0.55048,-0.17091 0.4522,-1.18747 c 0.38671,-1.01546 0.45365,-1.48194 0.4621,-3.2204 0.009,-1.7741 -0.0381,-2.1117 -0.36698,-2.65165 -0.20728,-0.34029 -0.78686,-1.29243 -1.28795,-2.11586 -1.16912,-1.92117 -1.4877,-3.01705 -1.47419,-5.07112 0.0126,-1.91237 0.36891,-3.29004 1.17821,-4.55518 0.71274,-1.11419 2.24901,-2.52219 3.22892,-2.95932 0.57371,-0.25593 3.58707,-0.84793 4.34609,-0.85382 0.0738,-5.8e-4 0.096,-0.41868 0.0494,-0.92912 -0.0466,-0.51045 -0.12793,-2.18269 -0.18079,-3.71611 l -0.0961,-2.78802 1.05809,0.53412 c 0.58195,0.29377 1.13763,0.53412 1.23485,0.53412 0.0972,0 0.25142,-0.25853 0.34266,-0.57452 0.14701,-0.509164 0.16784,-0.524247 0.18312,-0.13258 0.0134,0.34338 0.34221,0.67368 1.47436,1.48106 2.10224,1.49918 4.02859,2.38908 5.46121,2.52286 l 1.16693,0.10897 -0.42,1.03363 c -0.61362,1.51011 -0.56663,2.36405 0.16795,3.05272 0.69477,0.65134 5.58002,3.2354 10.90253,5.76692 6.07287,2.8884 9.92819,4.54426 16.47242,7.07492 3.4708,1.34216 4.26836,1.76311 3.34051,1.76311 -0.30091,0 -0.29459,0.11954 0.11296,2.13665 0.23743,1.17515 0.40203,2.16631 0.36578,2.20257 -0.0363,0.0363 -5.15368,-1.9626 -11.37204,-4.44192 -17.99235,-7.17369 -23.41892,-9.25996 -28.73579,-11.04761 -1.44535,-0.48596 -1.56506,-0.49924 -2.4446,-0.27109 -0.63372,0.16439 -1.14429,0.4542 -1.62204,0.92071 -0.80209,0.78322 -1.57304,2.21602 -1.57304,2.92347 0,1.20276 2.56426,6.91136 3.6388,8.10075 0.72898,0.80689 1.61713,1.2955 5.58291,3.07137 5.73345,2.56745 9.48733,4.59002 25.07296,13.50924 13.3741,7.65361 14.45962,8.4364 17.21995,12.41757 1.67117,2.41029 1.93932,2.45739 2.01281,0.35355 0.0655,-1.87622 -0.36314,-5.47065 -0.95822,-8.03455 -0.38896,-1.67582 -0.42609,-2.07366 -0.26139,-2.80029 0.44541,-1.96501 2.12217,-3.30729 4.13142,-3.30729 0.6116,0 0.82652,0.1165 1.54892,0.83968 1.59517,1.5969 1.58314,2.957 -0.0419,4.73505 l -0.91196,0.99782 0.22116,2.50316 c 0.12163,1.37674 0.55689,5.90831 0.96724,10.07016 l 0.7461,7.56701 -0.44884,-0.10658 c -0.24685,-0.0586 -0.56849,-0.14174 -0.71473,-0.1847 -0.22078,-0.0649 -0.54726,1.54869 -1.92422,9.51014 -0.91208,5.27354 -1.67172,9.60576 -1.68809,9.62716 -0.0164,0.0214 -0.29336,-1.5696 -0.61554,-3.53554 z"
             id="path44"
             transform="matrix(0.26458333,0,0,0.26458333,29.590038,12.045502)" /><path
             style="fill:#000000;stroke:#000000;stroke-width:1.16409;stroke-dasharray:none"
             d="m 349.64214,184.81414 c -0.0117,-0.0718 -0.0212,-0.13494 -0.0211,-0.14031 7e-5,-0.007 0.0147,-0.01 0.047,-0.01 0.0323,0 0.0468,0.003 0.0468,0.01 -1.7e-4,0.0166 -0.0447,0.26417 -0.0481,0.26761 -0.002,0.002 -0.0128,-0.0555 -0.0245,-0.1273 z"
             id="path45"
             transform="matrix(0.26458333,0,0,0.26458333,29.590038,12.045502)" /><path
             style="fill:#000000;stroke:#000000;stroke-width:0.0835166"
             d=""
             id="path46"
             transform="matrix(0.26458333,0,0,0.26458333,29.590038,12.045502)" /><path
             style="fill:#000000;stroke:#000000;stroke-width:0.0835166"
             d="m 341.44605,122.8895 c -0.008,-0.0346 -0.0201,-0.0798 -0.0262,-0.10061 -0.009,-0.0314 0.017,-0.026 0.15668,0.0323 0.18117,0.0756 0.17962,0.0869 -0.016,0.11622 -0.0958,0.0144 -0.1,0.0126 -0.11446,-0.0479 z"
             id="path47"
             transform="matrix(0.26458333,0,0,0.26458333,29.590038,12.045502)" /><path
             style="fill:#000000;stroke:#000000;stroke-width:0.0835166"
             d="m 341.42209,127.67697 c -0.008,-0.0122 -0.003,-0.0221 0.01,-0.0221 0.0129,0 0.0234,0.01 0.0234,0.0221 0,0.0122 -0.004,0.0221 -0.01,0.0221 -0.005,0 -0.0159,-0.01 -0.0234,-0.0221 z"
             id="path48"
             transform="matrix(0.26458333,0,0,0.26458333,29.590038,12.045502)" /><path
             style="fill:#000000;stroke:#000000;stroke-width:0.11811"
             d="M 281.29687,105.23497 V 86.626191 l 0.0703,-0.01492 c 0.0743,-0.01576 1.99552,-0.06701 3.57031,-0.09524 1.01263,-0.01815 2.85827,0.02557 3.31124,0.07844 0.154,0.01797 0.33681,0.05973 0.40625,0.09278 0.0694,0.03306 1.17392,0.284634 2.45438,0.559059 l 2.32813,0.498954 0.26562,-0.08929 c 0.59072,-0.198577 1.09159,-0.192625 1.76563,0.02098 0.36279,0.114972 0.90807,0.392337 1.1581,0.589097 0.99265,0.781141 1.63815,2.407275 2.05902,5.187059 0.0442,0.292187 0.0882,0.582166 0.0978,0.644398 l 0.0173,0.113147 1.70888,0.820504 c 2.52939,1.214472 3.45313,1.676187 4.12924,2.063926 2.5677,1.472545 5.15707,3.377695 5.71079,4.201765 0.38093,0.56694 0.63446,1.34144 0.63446,1.93823 0,0.22614 0.0548,0.4674 0.12564,0.5536 l 0.0581,0.0707 0.21281,-0.10806 c 0.11705,-0.0594 0.63108,-0.38991 1.1423,-0.73438 0.51123,-0.34447 1.08779,-0.72812 1.28125,-0.85256 1.38996,-0.89403 2.26062,-0.94959 3.52363,-0.22481 0.59254,0.34001 1.20523,0.7943 2.48438,1.8421 3.01728,2.47154 8.40195,6.38448 12.57812,9.14028 2.58502,1.70581 3.19317,2.13039 4.08471,2.85173 0.86694,0.70143 1.15114,0.91891 1.40748,1.077 l 0.25781,0.159 v 3.41705 3.41704 H 309.71868 281.2968 Z m 20.90267,-5.852158 -0.004,-0.273437 -0.0564,0.21875 c -0.0749,0.290691 -0.0748,0.328125 10e-4,0.328125 0.058,0 0.0623,-0.01964 0.0589,-0.273438 z"
             id="path49-7"
             transform="matrix(0.26458333,0,0,0.26458333,29.590038,12.045502)" /><rect
             style="fill:#000000;stroke:#000000;stroke-width:1"
             id="rect49"
             width="0.9921875"
             height="3.141927"
             x="128.24817"
             y="73.677155"
             transform="rotate(-3.508805)" /><path
             style="fill:#000000;stroke:#000000;stroke-width:2.3622;stroke-dasharray:none"
             d="m 358.08951,214.62565 -17.53549,-0.0632 -1.22975,-2.34627 c -0.67636,-1.29044 -1.18071,-2.37658 -1.12076,-2.41362 0.0599,-0.037 0.10899,-0.34654 0.10899,-0.68775 v -0.62038 l 2.32405,0.034 2.32405,0.034 0.3048,0.75 c 0.16764,0.4125 0.40549,0.85086 0.52855,0.97413 0.3456,0.34618 1.95618,0.45866 6.60337,0.46115 3.31954,0.002 4.18104,-0.0315 4.31626,-0.16671 0.0929,-0.0929 0.24122,-0.59917 0.32958,-1.125 l 0.16064,-0.956 h 3.21417 3.21416 l 0.22146,0.85969 c 0.3727,1.44679 -0.33153,1.32094 6.46983,1.15622 3.25962,-0.0789 6.62893,-0.18003 7.48735,-0.22463 1.47339,-0.0765 1.57948,-0.0998 1.89497,-0.41529 0.18381,-0.18381 0.40509,-0.57081 0.49173,-0.85998 l 0.15753,-0.52578 2.4475,0.0474 c 2.03809,0.0395 2.60194,0.0924 3.37075,0.31606 0.50779,0.14776 1.44538,0.30535 2.08354,0.3502 l 1.16028,0.0816 0.0691,0.70102 c 0.038,0.38556 0.10048,1.29164 0.1388,2.01352 0.0383,0.72187 0.10171,1.63594 0.14086,2.03125 l 0.0712,0.71875 -6.10603,-0.0306 c -3.35831,-0.0168 -13.99699,-0.059 -23.64151,-0.0937 z"
             id="path50-3"
             transform="matrix(0.26458333,0,0,0.26458333,29.590038,12.045502)" /></g></g></g></g></svg>
